<svg width="234" height="66" viewBox="0 0 234 66" fill="none" xmlns="http://www.w3.org/2000/svg">
<path fill-rule="evenodd" clip-rule="evenodd" d="M33.2962 66C51.0771 66 65.4913 51.2254 65.4913 33C65.4913 14.7746 51.0771 0 33.2962 0C15.5153 0 1.10107 14.7746 1.10107 33C1.10107 51.2254 15.5153 66 33.2962 66ZM43.34 15.3728C43.8289 13.5928 42.1436 12.5402 40.6045 13.6641L19.1193 29.3528C17.4501 30.5717 17.7127 33 19.5137 33H25.1713V32.9551H36.1978L27.2133 36.2045L23.2525 50.6273C22.7636 52.4073 24.4487 53.4598 25.9879 52.3359L47.4732 36.6473C49.1423 35.4285 48.8796 33 47.0788 33H38.4991L43.34 15.3728Z" fill="#4640DE"/>
<path d="M114.332 26.06L108.482 47H103.532L99.6025 32.09L95.4925 47L90.5725 47.03L84.9325 26.06H89.4325L93.1225 42.32L97.3825 26.06H102.062L106.082 42.23L109.802 26.06H114.332ZM132.525 38.33C132.525 38.93 132.485 39.47 132.405 39.95H120.255C120.355 41.15 120.775 42.09 121.515 42.77C122.255 43.45 123.165 43.79 124.245 43.79C125.805 43.79 126.915 43.12 127.575 41.78H132.105C131.625 43.38 130.705 44.7 129.345 45.74C127.985 46.76 126.315 47.27 124.335 47.27C122.735 47.27 121.295 46.92 120.015 46.22C118.755 45.5 117.765 44.49 117.045 43.19C116.345 41.89 115.995 40.39 115.995 38.69C115.995 36.97 116.345 35.46 117.045 34.16C117.745 32.86 118.725 31.86 119.985 31.16C121.245 30.46 122.695 30.11 124.335 30.11C125.915 30.11 127.325 30.45 128.565 31.13C129.825 31.81 130.795 32.78 131.475 34.04C132.175 35.28 132.525 36.71 132.525 38.33ZM128.175 37.13C128.155 36.05 127.765 35.19 127.005 34.55C126.245 33.89 125.315 33.56 124.215 33.56C123.175 33.56 122.295 33.88 121.575 34.52C120.875 35.14 120.445 36.01 120.285 37.13H128.175ZM139.791 24.8V47H135.591V24.8H139.791ZM142.86 38.63C142.86 36.95 143.19 35.46 143.85 34.16C144.53 32.86 145.44 31.86 146.58 31.16C147.74 30.46 149.03 30.11 150.45 30.11C151.69 30.11 152.77 30.36 153.69 30.86C154.63 31.36 155.38 31.99 155.94 32.75V30.38H160.17V47H155.94V44.57C155.4 45.35 154.65 46 153.69 46.52C152.75 47.02 151.66 47.27 150.42 47.27C149.02 47.27 147.74 46.91 146.58 46.19C145.44 45.47 144.53 44.46 143.85 43.16C143.19 41.84 142.86 40.33 142.86 38.63ZM155.94 38.69C155.94 37.67 155.74 36.8 155.34 36.08C154.94 35.34 154.4 34.78 153.72 34.4C153.04 34 152.31 33.8 151.53 33.8C150.75 33.8 150.03 33.99 149.37 34.37C148.71 34.75 148.17 35.31 147.75 36.05C147.35 36.77 147.15 37.63 147.15 38.63C147.15 39.63 147.35 40.51 147.75 41.27C148.17 42.01 148.71 42.58 149.37 42.98C150.05 43.38 150.77 43.58 151.53 43.58C152.31 43.58 153.04 43.39 153.72 43.01C154.4 42.61 154.94 42.05 155.34 41.33C155.74 40.59 155.94 39.71 155.94 38.69ZM173.482 30.14C175.462 30.14 177.062 30.77 178.282 32.03C179.502 33.27 180.112 35.01 180.112 37.25V47H175.912V37.82C175.912 36.5 175.582 35.49 174.922 34.79C174.262 34.07 173.362 33.71 172.222 33.71C171.062 33.71 170.142 34.07 169.462 34.79C168.802 35.49 168.472 36.5 168.472 37.82V47H164.272V30.38H168.472V32.45C169.032 31.73 169.742 31.17 170.602 30.77C171.482 30.35 172.442 30.14 173.482 30.14ZM183.026 38.69C183.026 36.97 183.376 35.47 184.076 34.19C184.776 32.89 185.746 31.89 186.986 31.19C188.226 30.47 189.646 30.11 191.246 30.11C193.306 30.11 195.006 30.63 196.346 31.67C197.706 32.69 198.616 34.13 199.076 35.99H194.546C194.306 35.27 193.896 34.71 193.316 34.31C192.756 33.89 192.056 33.68 191.216 33.68C190.016 33.68 189.066 34.12 188.366 35C187.666 35.86 187.316 37.09 187.316 38.69C187.316 40.27 187.666 41.5 188.366 42.38C189.066 43.24 190.016 43.67 191.216 43.67C192.916 43.67 194.026 42.91 194.546 41.39H199.076C198.616 43.19 197.706 44.62 196.346 45.68C194.986 46.74 193.286 47.27 191.246 47.27C189.646 47.27 188.226 46.92 186.986 46.22C185.746 45.5 184.776 44.5 184.076 43.22C183.376 41.92 183.026 40.41 183.026 38.69ZM217.603 38.33C217.603 38.93 217.563 39.47 217.483 39.95H205.333C205.433 41.15 205.853 42.09 206.593 42.77C207.333 43.45 208.243 43.79 209.323 43.79C210.883 43.79 211.993 43.12 212.653 41.78H217.183C216.703 43.38 215.783 44.7 214.423 45.74C213.063 46.76 211.393 47.27 209.413 47.27C207.813 47.27 206.373 46.92 205.093 46.22C203.833 45.5 202.843 44.49 202.123 43.19C201.423 41.89 201.073 40.39 201.073 38.69C201.073 36.97 201.423 35.46 202.123 34.16C202.823 32.86 203.803 31.86 205.063 31.16C206.323 30.46 207.773 30.11 209.413 30.11C210.993 30.11 212.403 30.45 213.643 31.13C214.903 31.81 215.873 32.78 216.553 34.04C217.253 35.28 217.603 36.71 217.603 38.33ZM213.253 37.13C213.233 36.05 212.843 35.19 212.083 34.55C211.323 33.89 210.393 33.56 209.293 33.56C208.253 33.56 207.373 33.88 206.653 34.52C205.953 35.14 205.523 36.01 205.363 37.13H213.253ZM224.869 32.96C225.409 32.08 226.109 31.39 226.969 30.89C227.849 30.39 228.849 30.14 229.969 30.14V34.55H228.859C227.539 34.55 226.539 34.86 225.859 35.48C225.199 36.1 224.869 37.18 224.869 38.72V47H220.669V30.38H224.869V32.96Z" fill="black"/>
</svg>
