<svg width="24" height="24" viewBox="0 0 24 24" fill="none" xmlns="http://www.w3.org/2000/svg">
<path d="M11.9999 8.09474C9.84951 8.09474 8.09463 9.84962 8.09463 12C8.09463 14.1504 9.84951 15.9053 11.9999 15.9053C14.1503 15.9053 15.9052 14.1504 15.9052 12C15.9052 9.84962 14.1503 8.09474 11.9999 8.09474ZM23.7128 12C23.7128 10.3828 23.7275 8.78029 23.6366 7.16603C23.5458 5.29103 23.1181 3.62697 21.747 2.25588C20.373 0.881852 18.7118 0.457048 16.8368 0.366228C15.2196 0.275408 13.6171 0.290056 12.0028 0.290056C10.3856 0.290056 8.7831 0.275408 7.16885 0.366228C5.29384 0.457048 3.62978 0.884782 2.25869 2.25588C0.884661 3.6299 0.459856 5.29103 0.369035 7.16603C0.278215 8.78322 0.292864 10.3858 0.292864 12C0.292864 13.6143 0.278215 15.2197 0.369035 16.834C0.459856 18.709 0.887591 20.3731 2.25869 21.7441C3.63271 23.1182 5.29384 23.543 7.16885 23.6338C8.78603 23.7246 10.3886 23.71 12.0028 23.71C13.62 23.71 15.2226 23.7246 16.8368 23.6338C18.7118 23.543 20.3759 23.1152 21.747 21.7441C23.121 20.3701 23.5458 18.709 23.6366 16.834C23.7304 15.2197 23.7128 13.6172 23.7128 12ZM11.9999 18.0088C8.6747 18.0088 5.99111 15.3252 5.99111 12C5.99111 8.67482 8.6747 5.99123 11.9999 5.99123C15.3251 5.99123 18.0087 8.67482 18.0087 12C18.0087 15.3252 15.3251 18.0088 11.9999 18.0088ZM18.2548 7.14845C17.4784 7.14845 16.8515 6.5215 16.8515 5.74513C16.8515 4.96876 17.4784 4.34181 18.2548 4.34181C19.0312 4.34181 19.6581 4.96876 19.6581 5.74513C19.6583 5.92948 19.6222 6.11207 19.5518 6.28243C19.4813 6.4528 19.378 6.60759 19.2476 6.73794C19.1172 6.8683 18.9625 6.97166 18.7921 7.0421C18.6217 7.11254 18.4391 7.14868 18.2548 7.14845Z" fill="#252525"/>
</svg>
