<?xml version="1.0" encoding="UTF-8"?>
<!DOCTYPE svg PUBLIC "-//W3C//DTD SVG 1.1//EN" "http://www.w3.org/Graphics/SVG/1.1/DTD/svg11.dtd">
<svg xmlns="http://www.w3.org/2000/svg" version="1.1" width="422px" height="580px" style="shape-rendering:geometricPrecision; text-rendering:geometricPrecision; image-rendering:optimizeQuality; fill-rule:evenodd; clip-rule:evenodd" xmlns:xlink="http://www.w3.org/1999/xlink">
<g><path style="opacity:1" fill="#f6f6fa" d="M 181.5,-0.5 C 261.5,-0.5 341.5,-0.5 421.5,-0.5C 421.5,5.5 421.5,11.5 421.5,17.5C 420.67,27.3249 420.17,37.3249 420,47.5C 417.714,48.2535 415.214,48.2535 412.5,47.5C 411.201,48.09 410.368,49.09 410,50.5C 408.333,48.8333 406.667,47.1667 405,45.5C 404.667,46.1667 404.333,46.8333 404,47.5C 403.311,46.6433 402.478,45.9767 401.5,45.5C 399.929,46.3094 398.262,46.6427 396.5,46.5C 396.307,42.551 395.807,42.551 395,46.5C 394.667,45.5 394.333,44.5 394,43.5C 393.535,44.9308 392.701,46.0975 391.5,47C 389.457,47.9301 387.624,48.4301 386,48.5C 385.781,47.062 385.281,45.7287 384.5,44.5C 384.795,45.8255 384.295,47.1588 383,48.5C 382.085,47.6721 381.419,46.6721 381,45.5C 380.667,45.8333 380.333,46.1667 380,46.5C 378.333,43.8333 376.667,43.8333 375,46.5C 374.667,45.5 374.333,44.5 374,43.5C 373.333,44.8333 372.667,44.8333 372,43.5C 369.904,44.7155 370.071,45.5488 372.5,46C 370.888,46.7203 369.388,46.5536 368,45.5C 366.493,46.5046 365.327,47.838 364.5,49.5C 363.148,48.4825 362.148,47.1492 361.5,45.5C 360.914,45.7093 360.414,46.0426 360,46.5C 359.333,45.1667 358.667,43.8333 358,42.5C 356.522,45.9931 354.522,46.3264 352,43.5C 349.426,49.1581 345.593,49.6581 340.5,45C 338.782,44.654 337.115,44.154 335.5,43.5C 334.158,44.9023 333.324,44.5689 333,42.5C 332.781,43.938 332.281,45.2713 331.5,46.5C 329.891,45.1117 328.058,44.1117 326,43.5C 323.371,44.4245 321.038,44.4245 319,43.5C 317.324,44.0611 315.991,45.0611 315,46.5C 314.558,44.3215 313.558,43.6548 312,44.5C 310.326,42.9907 308.66,42.3241 307,42.5C 306.612,43.428 305.945,44.0946 305,44.5C 303.85,43.5761 302.85,43.5761 302,44.5C 301.667,43.8333 301.333,43.1667 301,42.5C 300.716,44.8856 299.716,45.5523 298,44.5C 296.667,47.1667 295.333,47.1667 294,44.5C 293.653,46.1802 292.653,47.1802 291,47.5C 290.454,46.7107 289.787,45.7107 289,44.5C 287.853,45.4581 286.853,45.1247 286,43.5C 284.475,43.8881 282.808,43.8881 281,43.5C 279.518,45.7811 277.851,45.7811 276,43.5C 274.887,44.7111 273.72,44.7111 272.5,43.5C 271.459,45.9913 270.626,45.9913 270,43.5C 269.667,44.1667 269.333,44.8333 269,45.5C 268.167,44.5 267.333,43.5 266.5,42.5C 266.687,43.8168 266.02,45.1501 264.5,46.5C 264.704,45.4706 264.204,44.4706 263,43.5C 262.667,44.1667 262.333,44.8333 262,45.5C 260,42.8333 258,42.8333 256,45.5C 254.796,44.5294 254.296,43.5294 254.5,42.5C 253.808,43.0253 253.308,43.6919 253,44.5C 250.22,43.155 247.387,43.4883 244.5,45.5C 242.958,44.2532 241.458,44.2532 240,45.5C 240.986,40.8116 240.152,40.4783 237.5,44.5C 232.652,44.2561 227.819,43.9228 223,43.5C 220.196,45.6485 217.529,45.3152 215,42.5C 214.309,44.8912 213.309,44.8912 212,42.5C 211.333,45.1667 210.667,45.1667 210,42.5C 209,43.8333 208,43.8333 207,42.5C 206.292,43.3805 205.458,44.0472 204.5,44.5C 198.128,28.7545 190.461,13.7545 181.5,-0.5 Z"/></g>
<g><path style="opacity:1" fill="#efe3e6" d="M -0.5,-0.5 C 60.1667,-0.5 120.833,-0.5 181.5,-0.5C 190.461,13.7545 198.128,28.7545 204.5,44.5C 205.038,46.1172 205.371,47.7839 205.5,49.5C 204.325,48.0262 203.325,46.3596 202.5,44.5C 198.138,48.3582 197.471,47.5249 200.5,42C 199.923,40.286 198.423,38.786 196,37.5C 195.667,38.8333 195.333,40.1667 195,41.5C 194.581,40.3279 193.915,39.3279 193,38.5C 192.383,39.4491 192.549,40.2825 193.5,41C 191.77,42.8524 190.604,42.6857 190,40.5C 188.887,41.7604 188.72,42.927 189.5,44C 187.667,45.1667 185.833,46.3333 184,47.5C 182.605,45.8603 181.105,44.3603 179.5,43C 180.685,41.647 182.019,40.4803 183.5,39.5C 182.229,39.8745 181.062,39.2078 180,37.5C 178.513,38.2529 178.346,39.0862 179.5,40C 177.431,40.3242 177.098,41.1575 178.5,42.5C 176.993,43.7388 175.826,43.4054 175,41.5C 174.024,45.1828 172.357,45.8494 170,43.5C 167.965,45.9119 166.965,45.2452 167,41.5C 166.667,42.1667 166.333,42.8333 166,43.5C 165.221,42.2718 164.221,41.2718 163,40.5C 161.189,41.4235 161.355,42.2569 163.5,43C 163,43.5 162.5,44 162,44.5C 161.097,43.2986 159.931,42.4652 158.5,42C 160.654,40.8162 160.32,39.6496 157.5,38.5C 156.692,38.8076 156.025,39.3076 155.5,40C 156.945,41.7103 157.778,43.5436 158,45.5C 156.171,43.8442 154.837,41.8442 154,39.5C 153.511,41.8156 152.844,44.1489 152,46.5C 151.682,44.9391 150.849,43.7724 149.5,43C 150.554,41.6124 150.72,40.1124 150,38.5C 148.493,40.008 146.827,41.3413 145,42.5C 142.765,41.7607 140.765,41.7607 139,42.5C 138.196,41.1955 137.029,40.5288 135.5,40.5C 132.885,41.2692 130.219,41.6025 127.5,41.5C 127.798,38.6644 127.131,38.1644 125.5,40C 126.621,42.9225 126.287,43.0892 124.5,40.5C 123.311,39.5713 121.978,39.238 120.5,39.5C 120.307,43.449 119.807,43.449 119,39.5C 118.28,41.1124 118.446,42.6124 119.5,44C 119,44.5 118.5,45 118,45.5C 118.283,38.0395 116.283,37.0395 112,42.5C 110.352,38.0049 108.352,37.6715 106,41.5C 105,40.5 104,39.5 103,38.5C 102.581,39.6721 101.915,40.6721 101,41.5C 99.0967,41.3062 97.2633,41.3062 95.5,41.5C 93.425,39.6317 91.2583,39.9651 89,42.5C 88.6924,41.6919 88.1924,41.0253 87.5,40.5C 86.2038,42.3362 85.3704,44.3362 85,46.5C 84.9432,42.0265 82.7766,39.3599 78.5,38.5C 78.0024,39.6034 77.6691,40.6034 77.5,41.5C 74.5344,39.3031 71.201,37.9698 67.5,37.5C 67.5245,39.2837 67.0245,41.2837 66,43.5C 64.0762,37.3035 62.9095,37.3035 62.5,43.5C 61.8076,42.9747 61.3076,42.3081 61,41.5C 60.6667,41.8333 60.3333,42.1667 60,42.5C 57.6667,41.5 55.3333,40.5 53,39.5C 53.7951,42.8554 52.6284,43.3554 49.5,41C 51.5951,40.4444 51.7618,39.9444 50,39.5C 48.7387,39.7591 47.7387,40.4258 47,41.5C 45.8403,39.203 44.8403,39.5363 44,42.5C 43.3333,41.1667 42.6667,39.8333 42,38.5C 41.5,39.6667 40.6667,40.5 39.5,41C 39.8333,41.3333 40.1667,41.6667 40.5,42C 36.8493,43.123 34.3493,41.9563 33,38.5C 31.3428,40.5669 29.6762,41.9002 28,42.5C 27.4572,37.6035 26.1239,37.6035 24,42.5C 20.3857,40.2076 16.719,38.8742 13,38.5C 12.3828,39.4491 12.5494,40.2825 13.5,41C 12.3224,41.9669 10.989,42.4669 9.5,42.5C 7.51208,41.7112 7.17875,40.5445 8.5,39C 7.25753,38.6886 6.25753,39.1886 5.5,40.5C 3.67687,39.5091 2.17687,38.1757 1,36.5C 0.342016,38.108 0.842016,39.2747 2.5,40C 1.55198,40.4828 0.551975,40.6495 -0.5,40.5C -0.5,26.8333 -0.5,13.1667 -0.5,-0.5 Z"/></g>
<g><path style="opacity:1" fill="#f0eff7" d="M 421.5,17.5 C 421.5,38.1667 421.5,58.8333 421.5,79.5C 420.508,86.6476 420.175,93.9809 420.5,101.5C 418.856,101.286 417.356,101.62 416,102.5C 414.829,101.107 413.329,100.273 411.5,100C 412.696,99.3457 412.696,98.8457 411.5,98.5C 410.261,100.007 410.595,101.174 412.5,102C 410.227,103.27 408.061,102.77 406,100.5C 405.667,100.833 405.333,101.167 405,101.5C 404.751,100.376 404.251,99.376 403.5,98.5C 403.678,99.956 402.844,101.289 401,102.5C 400.333,101.167 399.667,101.167 399,102.5C 398.085,101.672 397.419,100.672 397,99.5C 395.327,101.917 393.494,101.917 391.5,99.5C 390.914,99.7093 390.414,100.043 390,100.5C 390,99.1667 390,97.8333 390,96.5C 389.25,97.1258 388.416,97.6258 387.5,98C 388.517,99.0495 388.684,100.216 388,101.5C 385.266,98.7074 384.266,99.0407 385,102.5C 382.901,101.534 381.068,100.2 379.5,98.5C 377.885,99.154 376.218,99.654 374.5,100C 375.167,100.333 375.833,100.667 376.5,101C 375.167,101.667 373.833,101.667 372.5,101C 373.863,98.8707 373.529,98.3707 371.5,99.5C 370.522,99.0233 369.689,98.3567 369,97.5C 368.309,99.8912 367.309,99.8912 366,97.5C 365.667,98.8333 365.333,100.167 365,101.5C 363.196,97.9316 360.863,97.5983 358,100.5C 357.667,99.8333 357.333,99.1667 357,98.5C 355.956,99.6226 355.29,100.956 355,102.5C 354.316,100.641 353.316,98.9743 352,97.5C 351.374,99.9913 350.541,99.9913 349.5,97.5C 347.471,98.6293 347.137,98.1293 348.5,96C 347.234,95.6905 346.067,95.1905 345,94.5C 345.333,95.8333 345.667,97.1667 346,98.5C 344.933,97.8095 343.766,97.3095 342.5,97C 343.451,96.2825 343.617,95.4491 343,94.5C 341.23,95.0626 339.23,96.0626 337,97.5C 334.454,93.8843 332.121,94.2177 330,98.5C 328.691,96.1088 327.691,96.1088 327,98.5C 326.311,97.6433 325.478,96.9767 324.5,96.5C 324.5,97.5 324.5,98.5 324.5,99.5C 322.803,98.6364 321.637,97.3031 321,95.5C 320.517,96.448 320.351,97.448 320.5,98.5C 317.421,98.1958 314.587,97.1958 312,95.5C 310.251,96.299 308.918,95.6324 308,93.5C 307.683,95.3008 307.016,95.6341 306,94.5C 304.112,96.9223 302.112,96.9223 300,94.5C 298.667,94.5 297.333,94.5 296,94.5C 294.48,96.8345 292.98,96.6679 291.5,94C 295.511,93.8337 296.011,93.0004 293,91.5C 291.215,92.2401 289.382,92.9067 287.5,93.5C 286.808,92.9747 286.308,92.3081 286,91.5C 284.323,92.9013 282.656,94.2347 281,95.5C 280.055,95.0946 279.388,94.428 279,93.5C 278.667,93.8333 278.333,94.1667 278,94.5C 276.907,92.6508 275.574,90.9842 274,89.5C 273.581,90.6721 272.915,91.6721 272,92.5C 270.333,92.1667 268.667,91.8333 267,91.5C 265.551,92.6141 264.217,93.6141 263,94.5C 261.284,94.5894 259.451,94.2561 257.5,93.5C 255.528,95.3213 253.194,95.488 250.5,94C 250.833,93.6667 251.167,93.3333 251.5,93C 248.456,92.6411 248.122,91.9745 250.5,91C 249.552,90.5172 248.552,90.3505 247.5,90.5C 247.549,95.5388 246.882,95.7055 245.5,91C 241.004,88.8331 236.837,89.3331 233,92.5C 231.488,91.7433 230.154,90.7433 229,89.5C 227.667,90.8333 226.333,90.8333 225,89.5C 224.667,90.1667 224.333,90.8333 224,91.5C 222.581,90.5399 221.081,89.7065 219.5,89C 220.696,88.3457 220.696,87.8457 219.5,87.5C 218.476,88.8532 217.143,89.5198 215.5,89.5C 215.737,88.209 215.404,87.209 214.5,86.5C 213.091,73.6581 210.091,61.3248 205.5,49.5C 205.371,47.7839 205.038,46.1172 204.5,44.5C 205.458,44.0472 206.292,43.3805 207,42.5C 208,43.8333 209,43.8333 210,42.5C 210.667,45.1667 211.333,45.1667 212,42.5C 213.309,44.8912 214.309,44.8912 215,42.5C 217.529,45.3152 220.196,45.6485 223,43.5C 227.819,43.9228 232.652,44.2561 237.5,44.5C 240.152,40.4783 240.986,40.8116 240,45.5C 241.458,44.2532 242.958,44.2532 244.5,45.5C 247.387,43.4883 250.22,43.155 253,44.5C 253.308,43.6919 253.808,43.0253 254.5,42.5C 254.296,43.5294 254.796,44.5294 256,45.5C 258,42.8333 260,42.8333 262,45.5C 262.333,44.8333 262.667,44.1667 263,43.5C 264.204,44.4706 264.704,45.4706 264.5,46.5C 266.02,45.1501 266.687,43.8168 266.5,42.5C 267.333,43.5 268.167,44.5 269,45.5C 269.333,44.8333 269.667,44.1667 270,43.5C 270.626,45.9913 271.459,45.9913 272.5,43.5C 273.72,44.7111 274.887,44.7111 276,43.5C 277.851,45.7811 279.518,45.7811 281,43.5C 282.808,43.8881 284.475,43.8881 286,43.5C 286.853,45.1247 287.853,45.4581 289,44.5C 289.787,45.7107 290.454,46.7107 291,47.5C 292.653,47.1802 293.653,46.1802 294,44.5C 295.333,47.1667 296.667,47.1667 298,44.5C 299.716,45.5523 300.716,44.8856 301,42.5C 301.333,43.1667 301.667,43.8333 302,44.5C 302.85,43.5761 303.85,43.5761 305,44.5C 305.945,44.0946 306.612,43.428 307,42.5C 308.66,42.3241 310.326,42.9907 312,44.5C 313.558,43.6548 314.558,44.3215 315,46.5C 315.991,45.0611 317.324,44.0611 319,43.5C 321.038,44.4245 323.371,44.4245 326,43.5C 328.058,44.1117 329.891,45.1117 331.5,46.5C 332.281,45.2713 332.781,43.938 333,42.5C 333.324,44.5689 334.158,44.9023 335.5,43.5C 337.115,44.154 338.782,44.654 340.5,45C 345.593,49.6581 349.426,49.1581 352,43.5C 354.522,46.3264 356.522,45.9931 358,42.5C 358.667,43.8333 359.333,45.1667 360,46.5C 360.414,46.0426 360.914,45.7093 361.5,45.5C 362.148,47.1492 363.148,48.4825 364.5,49.5C 365.327,47.838 366.493,46.5046 368,45.5C 369.388,46.5536 370.888,46.7203 372.5,46C 370.071,45.5488 369.904,44.7155 372,43.5C 372.667,44.8333 373.333,44.8333 374,43.5C 374.333,44.5 374.667,45.5 375,46.5C 376.667,43.8333 378.333,43.8333 380,46.5C 380.333,46.1667 380.667,45.8333 381,45.5C 381.419,46.6721 382.085,47.6721 383,48.5C 384.295,47.1588 384.795,45.8255 384.5,44.5C 385.281,45.7287 385.781,47.062 386,48.5C 387.624,48.4301 389.457,47.9301 391.5,47C 392.701,46.0975 393.535,44.9308 394,43.5C 394.333,44.5 394.667,45.5 395,46.5C 395.807,42.551 396.307,42.551 396.5,46.5C 398.262,46.6427 399.929,46.3094 401.5,45.5C 402.478,45.9767 403.311,46.6433 404,47.5C 404.333,46.8333 404.667,46.1667 405,45.5C 406.667,47.1667 408.333,48.8333 410,50.5C 410.368,49.09 411.201,48.09 412.5,47.5C 415.214,48.2535 417.714,48.2535 420,47.5C 420.17,37.3249 420.67,27.3249 421.5,17.5 Z"/></g>
<g><path style="opacity:1" fill="#e9dde3" d="M 205.5,49.5 C 210.091,61.3248 213.091,73.6581 214.5,86.5C 215.32,92.7974 215.653,99.1308 215.5,105.5C 214.399,106.8 213.066,107.3 211.5,107C 209.57,104.742 208.07,102.242 207,99.5C 206.692,100.308 206.192,100.975 205.5,101.5C 204.549,100.674 203.549,100.508 202.5,101C 203.34,102.666 202.84,102.833 201,101.5C 199.667,102.167 198.333,102.833 197,103.5C 196.549,101.071 195.715,100.904 194.5,103C 195.668,104.871 195.168,106.371 193,107.5C 192.259,106.359 191.425,106.359 190.5,107.5C 189.5,106 188.5,104.5 187.5,103C 187.645,102.228 187.978,101.561 188.5,101C 185.809,101.054 183.976,99.8872 183,97.5C 181.197,97.0945 179.364,97.5945 177.5,99C 178.167,99.3333 178.833,99.6667 179.5,100C 177.359,100.884 175.693,100.384 174.5,98.5C 176.276,97.6852 176.943,96.5185 176.5,95C 175.256,94.5439 174.423,95.0439 174,96.5C 173.259,92.8154 171.759,92.1487 169.5,94.5C 168.707,94.0688 167.873,93.7355 167,93.5C 165.263,94.6198 163.429,95.6198 161.5,96.5C 160.281,95.7366 159.281,94.7366 158.5,93.5C 158.094,94.5575 158.094,95.8908 158.5,97.5C 157.325,97.719 156.325,97.3857 155.5,96.5C 153.913,94.9149 153.08,93.2482 153,91.5C 152.365,94.4873 151.865,97.154 151.5,99.5C 149.731,97.5417 149.065,95.5417 149.5,93.5C 148.5,95.1667 147.167,96.5 145.5,97.5C 144.304,97.1543 144.304,96.6543 145.5,96C 143.457,95.0699 141.624,94.5699 140,94.5C 139.667,95.5 139.333,96.5 139,97.5C 138.489,95.1218 137.822,92.7885 137,90.5C 136.667,91.5 136.333,92.5 136,93.5C 135.346,92.3044 134.846,92.3044 134.5,93.5C 135.577,95.7294 136.244,98.0628 136.5,100.5C 135.448,100.649 134.448,100.483 133.5,100C 134.517,98.9505 134.684,97.7839 134,96.5C 132.255,98.0891 131.088,100.089 130.5,102.5C 129.289,101.726 129.289,100.893 130.5,100C 128.667,98.1667 126.833,96.3333 125,94.5C 123.667,95.1667 122.333,95.8333 121,96.5C 120.683,94.6992 120.016,94.3659 119,95.5C 118.492,93.0958 117.325,92.4291 115.5,93.5C 114.094,92.0493 112.594,90.7159 111,89.5C 109.025,90.478 107.358,91.8113 106,93.5C 104.578,92.7948 103.245,92.4615 102,92.5C 101.667,93.1667 101.333,93.8333 101,94.5C 100.418,91.3323 99.4177,90.999 98,93.5C 96.6667,92.1667 95.3333,92.1667 94,93.5C 92.6667,89.5 91.3333,89.5 90,93.5C 88.2129,90.6344 86.0462,90.1344 83.5,92C 85.0009,93.2515 86.6675,94.2515 88.5,95C 87.2161,95.6838 86.0495,95.5171 85,94.5C 84.6924,95.3081 84.1924,95.9747 83.5,96.5C 83.7948,95.1745 83.2948,93.8412 82,92.5C 80.7964,93.4706 80.2964,94.4706 80.5,95.5C 79.7492,94.624 79.2492,93.624 79,92.5C 78.6924,93.3081 78.1924,93.9747 77.5,94.5C 75.3263,91.9194 73.1596,91.9194 71,94.5C 70.6667,93.8333 70.3333,93.1667 70,92.5C 69.8047,94.2072 69.8047,95.8739 70,97.5C 66.7615,94.1469 63.7615,90.4802 61,86.5C 58.8333,88 59,89.1667 61.5,90C 60.2986,90.9025 59.4652,92.0692 59,93.5C 58.3333,92.1667 57.6667,92.1667 57,93.5C 56.0164,91.2053 55.1831,91.5386 54.5,94.5C 53.635,95.5827 52.635,95.7494 51.5,95C 52.3081,94.6924 52.9747,94.1924 53.5,93.5C 52.7261,92.2888 51.8928,92.2888 51,93.5C 50.8333,93 50.6667,92.5 50.5,92C 51.7883,92.0267 52.7883,91.0267 53.5,89C 51.5804,88.785 49.9137,89.4516 48.5,91C 49.727,92.5874 49.3937,93.9207 47.5,95C 48.8882,95.8893 48.7215,96.3893 47,96.5C 46.5,96.3333 46,96.1667 45.5,96C 46.6379,94.2657 47.1379,92.4324 47,90.5C 46.3333,91.8333 45.6667,91.8333 45,90.5C 44.6643,92.0745 43.8309,93.4078 42.5,94.5C 39.8099,93.8306 38.4766,92.4972 38.5,90.5C 37.0295,91.3805 36.1962,92.7139 36,94.5C 32.2496,91.3643 32.7496,89.3643 37.5,88.5C 38.8549,87.3247 38.6883,86.3247 37,85.5C 36,86.8333 35,86.8333 34,85.5C 32.0362,88.0178 31.3695,90.6845 32,93.5C 28.7424,91.2634 28.2424,88.7634 30.5,86C 29.2513,84.1759 28.0847,84.3426 27,86.5C 26.6667,86.1667 26.3333,85.8333 26,85.5C 24.7758,88.473 22.7758,89.1397 20,87.5C 20.6171,89.0948 20.2837,90.4281 19,91.5C 18.6964,89.5595 17.8631,87.8928 16.5,86.5C 16.7093,85.914 17.0426,85.414 17.5,85C 15.3435,84.9219 13.3435,84.7552 11.5,84.5C 9.30677,86.7206 6.64011,88.054 3.5,88.5C 1.93089,87.286 1.09755,85.6193 1,83.5C 0.617425,84.056 0.117425,84.3893 -0.5,84.5C -0.5,69.8333 -0.5,55.1667 -0.5,40.5C 0.551975,40.6495 1.55198,40.4828 2.5,40C 0.842016,39.2747 0.342016,38.108 1,36.5C 2.17687,38.1757 3.67687,39.5091 5.5,40.5C 6.25753,39.1886 7.25753,38.6886 8.5,39C 7.17875,40.5445 7.51208,41.7112 9.5,42.5C 10.989,42.4669 12.3224,41.9669 13.5,41C 12.5494,40.2825 12.3828,39.4491 13,38.5C 16.719,38.8742 20.3857,40.2076 24,42.5C 26.1239,37.6035 27.4572,37.6035 28,42.5C 29.6762,41.9002 31.3428,40.5669 33,38.5C 34.3493,41.9563 36.8493,43.123 40.5,42C 40.1667,41.6667 39.8333,41.3333 39.5,41C 40.6667,40.5 41.5,39.6667 42,38.5C 42.6667,39.8333 43.3333,41.1667 44,42.5C 44.8403,39.5363 45.8403,39.203 47,41.5C 47.7387,40.4258 48.7387,39.7591 50,39.5C 51.7618,39.9444 51.5951,40.4444 49.5,41C 52.6284,43.3554 53.7951,42.8554 53,39.5C 55.3333,40.5 57.6667,41.5 60,42.5C 60.3333,42.1667 60.6667,41.8333 61,41.5C 61.3076,42.3081 61.8076,42.9747 62.5,43.5C 62.9095,37.3035 64.0762,37.3035 66,43.5C 67.0245,41.2837 67.5245,39.2837 67.5,37.5C 71.201,37.9698 74.5344,39.3031 77.5,41.5C 77.6691,40.6034 78.0024,39.6034 78.5,38.5C 82.7766,39.3599 84.9432,42.0265 85,46.5C 85.3704,44.3362 86.2038,42.3362 87.5,40.5C 88.1924,41.0253 88.6924,41.6919 89,42.5C 91.2583,39.9651 93.425,39.6317 95.5,41.5C 97.2633,41.3062 99.0967,41.3062 101,41.5C 101.915,40.6721 102.581,39.6721 103,38.5C 104,39.5 105,40.5 106,41.5C 108.352,37.6715 110.352,38.0049 112,42.5C 116.283,37.0395 118.283,38.0395 118,45.5C 118.5,45 119,44.5 119.5,44C 118.446,42.6124 118.28,41.1124 119,39.5C 119.807,43.449 120.307,43.449 120.5,39.5C 121.978,39.238 123.311,39.5713 124.5,40.5C 126.287,43.0892 126.621,42.9225 125.5,40C 127.131,38.1644 127.798,38.6644 127.5,41.5C 130.219,41.6025 132.885,41.2692 135.5,40.5C 137.029,40.5288 138.196,41.1955 139,42.5C 140.765,41.7607 142.765,41.7607 145,42.5C 146.827,41.3413 148.493,40.008 150,38.5C 150.72,40.1124 150.554,41.6124 149.5,43C 150.849,43.7724 151.682,44.9391 152,46.5C 152.844,44.1489 153.511,41.8156 154,39.5C 154.837,41.8442 156.171,43.8442 158,45.5C 157.778,43.5436 156.945,41.7103 155.5,40C 156.025,39.3076 156.692,38.8076 157.5,38.5C 160.32,39.6496 160.654,40.8162 158.5,42C 159.931,42.4652 161.097,43.2986 162,44.5C 162.5,44 163,43.5 163.5,43C 161.355,42.2569 161.189,41.4235 163,40.5C 164.221,41.2718 165.221,42.2718 166,43.5C 166.333,42.8333 166.667,42.1667 167,41.5C 166.965,45.2452 167.965,45.9119 170,43.5C 172.357,45.8494 174.024,45.1828 175,41.5C 175.826,43.4054 176.993,43.7388 178.5,42.5C 177.098,41.1575 177.431,40.3242 179.5,40C 178.346,39.0862 178.513,38.2529 180,37.5C 181.062,39.2078 182.229,39.8745 183.5,39.5C 182.019,40.4803 180.685,41.647 179.5,43C 181.105,44.3603 182.605,45.8603 184,47.5C 185.833,46.3333 187.667,45.1667 189.5,44C 188.72,42.927 188.887,41.7604 190,40.5C 190.604,42.6857 191.77,42.8524 193.5,41C 192.549,40.2825 192.383,39.4491 193,38.5C 193.915,39.3279 194.581,40.3279 195,41.5C 195.333,40.1667 195.667,38.8333 196,37.5C 198.423,38.786 199.923,40.286 200.5,42C 197.471,47.5249 198.138,48.3582 202.5,44.5C 203.325,46.3596 204.325,48.0262 205.5,49.5 Z"/></g>
<g><path style="opacity:1" fill="#eceaf4" d="M 421.5,79.5 C 421.5,156.5 421.5,233.5 421.5,310.5C 420.918,307.66 419.418,305.327 417,303.5C 414.672,307.445 412.839,307.112 411.5,302.5C 410.416,303.665 409.583,304.998 409,306.5C 408.385,304.884 407.385,303.551 406,302.5C 402.967,306.329 400.8,306.329 399.5,302.5C 398.289,303.39 396.955,303.39 395.5,302.5C 394.833,302.667 394.167,302.833 393.5,303C 397.512,303.57 398.012,304.737 395,306.5C 393.26,305.284 392.26,303.618 392,301.5C 391.309,303.891 390.309,303.891 389,301.5C 387.51,303.558 385.51,304.891 383,305.5C 381.956,304.377 381.29,303.044 381,301.5C 378.991,302.833 377.324,304.5 376,306.5C 375.23,305.402 374.397,305.402 373.5,306.5C 380.696,284.972 376.696,265.972 361.5,249.5C 359.126,246.126 356.126,243.459 352.5,241.5C 348.941,237.885 344.607,235.551 339.5,234.5C 335.203,232.302 330.536,231.302 325.5,231.5C 312.178,229.428 299.845,232.261 288.5,240C 283.998,243.67 279.665,247.503 275.5,251.5C 255.155,222.661 227.155,208.661 191.5,209.5C 207.397,179.137 215.731,146.804 216.5,112.5C 216.247,110.142 215.914,107.808 215.5,105.5C 215.653,99.1308 215.32,92.7974 214.5,86.5C 215.404,87.209 215.737,88.209 215.5,89.5C 217.143,89.5198 218.476,88.8532 219.5,87.5C 220.696,87.8457 220.696,88.3457 219.5,89C 221.081,89.7065 222.581,90.5399 224,91.5C 224.333,90.8333 224.667,90.1667 225,89.5C 226.333,90.8333 227.667,90.8333 229,89.5C 230.154,90.7433 231.488,91.7433 233,92.5C 236.837,89.3331 241.004,88.8331 245.5,91C 246.882,95.7055 247.549,95.5388 247.5,90.5C 248.552,90.3505 249.552,90.5172 250.5,91C 248.122,91.9745 248.456,92.6411 251.5,93C 251.167,93.3333 250.833,93.6667 250.5,94C 253.194,95.488 255.528,95.3213 257.5,93.5C 259.451,94.2561 261.284,94.5894 263,94.5C 264.217,93.6141 265.551,92.6141 267,91.5C 268.667,91.8333 270.333,92.1667 272,92.5C 272.915,91.6721 273.581,90.6721 274,89.5C 275.574,90.9842 276.907,92.6508 278,94.5C 278.333,94.1667 278.667,93.8333 279,93.5C 279.388,94.428 280.055,95.0946 281,95.5C 282.656,94.2347 284.323,92.9013 286,91.5C 286.308,92.3081 286.808,92.9747 287.5,93.5C 289.382,92.9067 291.215,92.2401 293,91.5C 296.011,93.0004 295.511,93.8337 291.5,94C 292.98,96.6679 294.48,96.8345 296,94.5C 297.333,94.5 298.667,94.5 300,94.5C 302.112,96.9223 304.112,96.9223 306,94.5C 307.016,95.6341 307.683,95.3008 308,93.5C 308.918,95.6324 310.251,96.299 312,95.5C 314.587,97.1958 317.421,98.1958 320.5,98.5C 320.351,97.448 320.517,96.448 321,95.5C 321.637,97.3031 322.803,98.6364 324.5,99.5C 324.5,98.5 324.5,97.5 324.5,96.5C 325.478,96.9767 326.311,97.6433 327,98.5C 327.691,96.1088 328.691,96.1088 330,98.5C 332.121,94.2177 334.454,93.8843 337,97.5C 339.23,96.0626 341.23,95.0626 343,94.5C 343.617,95.4491 343.451,96.2825 342.5,97C 343.766,97.3095 344.933,97.8095 346,98.5C 345.667,97.1667 345.333,95.8333 345,94.5C 346.067,95.1905 347.234,95.6905 348.5,96C 347.137,98.1293 347.471,98.6293 349.5,97.5C 350.541,99.9913 351.374,99.9913 352,97.5C 353.316,98.9743 354.316,100.641 355,102.5C 355.29,100.956 355.956,99.6226 357,98.5C 357.333,99.1667 357.667,99.8333 358,100.5C 360.863,97.5983 363.196,97.9316 365,101.5C 365.333,100.167 365.667,98.8333 366,97.5C 367.309,99.8912 368.309,99.8912 369,97.5C 369.689,98.3567 370.522,99.0233 371.5,99.5C 373.529,98.3707 373.863,98.8707 372.5,101C 373.833,101.667 375.167,101.667 376.5,101C 375.833,100.667 375.167,100.333 374.5,100C 376.218,99.654 377.885,99.154 379.5,98.5C 381.068,100.2 382.901,101.534 385,102.5C 384.266,99.0407 385.266,98.7074 388,101.5C 388.684,100.216 388.517,99.0495 387.5,98C 388.416,97.6258 389.25,97.1258 390,96.5C 390,97.8333 390,99.1667 390,100.5C 390.414,100.043 390.914,99.7093 391.5,99.5C 393.494,101.917 395.327,101.917 397,99.5C 397.419,100.672 398.085,101.672 399,102.5C 399.667,101.167 400.333,101.167 401,102.5C 402.844,101.289 403.678,99.956 403.5,98.5C 404.251,99.376 404.751,100.376 405,101.5C 405.333,101.167 405.667,100.833 406,100.5C 408.061,102.77 410.227,103.27 412.5,102C 410.595,101.174 410.261,100.007 411.5,98.5C 412.696,98.8457 412.696,99.3457 411.5,100C 413.329,100.273 414.829,101.107 416,102.5C 417.356,101.62 418.856,101.286 420.5,101.5C 420.175,93.9809 420.508,86.6476 421.5,79.5 Z"/></g>
<g><path style="opacity:1" fill="#e4d8e0" d="M 215.5,105.5 C 215.914,107.808 216.247,110.142 216.5,112.5C 215.731,146.804 207.397,179.137 191.5,209.5C 144.655,217.01 116.322,244.01 106.5,290.5C 72.5272,306.218 36.8606,312.551 -0.5,309.5C -0.5,234.5 -0.5,159.5 -0.5,84.5C 0.117425,84.3893 0.617425,84.056 1,83.5C 1.09755,85.6193 1.93089,87.286 3.5,88.5C 6.64011,88.054 9.30677,86.7206 11.5,84.5C 13.3435,84.7552 15.3435,84.9219 17.5,85C 17.0426,85.414 16.7093,85.914 16.5,86.5C 17.8631,87.8928 18.6964,89.5595 19,91.5C 20.2837,90.4281 20.6171,89.0948 20,87.5C 22.7758,89.1397 24.7758,88.473 26,85.5C 26.3333,85.8333 26.6667,86.1667 27,86.5C 28.0847,84.3426 29.2513,84.1759 30.5,86C 28.2424,88.7634 28.7424,91.2634 32,93.5C 31.3695,90.6845 32.0362,88.0178 34,85.5C 35,86.8333 36,86.8333 37,85.5C 38.6883,86.3247 38.8549,87.3247 37.5,88.5C 32.7496,89.3643 32.2496,91.3643 36,94.5C 36.1962,92.7139 37.0295,91.3805 38.5,90.5C 38.4766,92.4972 39.8099,93.8306 42.5,94.5C 43.8309,93.4078 44.6643,92.0745 45,90.5C 45.6667,91.8333 46.3333,91.8333 47,90.5C 47.1379,92.4324 46.6379,94.2657 45.5,96C 46,96.1667 46.5,96.3333 47,96.5C 48.7215,96.3893 48.8882,95.8893 47.5,95C 49.3937,93.9207 49.727,92.5874 48.5,91C 49.9137,89.4516 51.5804,88.785 53.5,89C 52.7883,91.0267 51.7883,92.0267 50.5,92C 50.6667,92.5 50.8333,93 51,93.5C 51.8928,92.2888 52.7261,92.2888 53.5,93.5C 52.9747,94.1924 52.3081,94.6924 51.5,95C 52.635,95.7494 53.635,95.5827 54.5,94.5C 55.1831,91.5386 56.0164,91.2053 57,93.5C 57.6667,92.1667 58.3333,92.1667 59,93.5C 59.4652,92.0692 60.2986,90.9025 61.5,90C 59,89.1667 58.8333,88 61,86.5C 63.7615,90.4802 66.7615,94.1469 70,97.5C 69.8047,95.8739 69.8047,94.2072 70,92.5C 70.3333,93.1667 70.6667,93.8333 71,94.5C 73.1596,91.9194 75.3263,91.9194 77.5,94.5C 78.1924,93.9747 78.6924,93.3081 79,92.5C 79.2492,93.624 79.7492,94.624 80.5,95.5C 80.2964,94.4706 80.7964,93.4706 82,92.5C 83.2948,93.8412 83.7948,95.1745 83.5,96.5C 84.1924,95.9747 84.6924,95.3081 85,94.5C 86.0495,95.5171 87.2161,95.6838 88.5,95C 86.6675,94.2515 85.0009,93.2515 83.5,92C 86.0462,90.1344 88.2129,90.6344 90,93.5C 91.3333,89.5 92.6667,89.5 94,93.5C 95.3333,92.1667 96.6667,92.1667 98,93.5C 99.4177,90.999 100.418,91.3323 101,94.5C 101.333,93.8333 101.667,93.1667 102,92.5C 103.245,92.4615 104.578,92.7948 106,93.5C 107.358,91.8113 109.025,90.478 111,89.5C 112.594,90.7159 114.094,92.0493 115.5,93.5C 117.325,92.4291 118.492,93.0958 119,95.5C 120.016,94.3659 120.683,94.6992 121,96.5C 122.333,95.8333 123.667,95.1667 125,94.5C 126.833,96.3333 128.667,98.1667 130.5,100C 129.289,100.893 129.289,101.726 130.5,102.5C 131.088,100.089 132.255,98.0891 134,96.5C 134.684,97.7839 134.517,98.9505 133.5,100C 134.448,100.483 135.448,100.649 136.5,100.5C 136.244,98.0628 135.577,95.7294 134.5,93.5C 134.846,92.3044 135.346,92.3044 136,93.5C 136.333,92.5 136.667,91.5 137,90.5C 137.822,92.7885 138.489,95.1218 139,97.5C 139.333,96.5 139.667,95.5 140,94.5C 141.624,94.5699 143.457,95.0699 145.5,96C 144.304,96.6543 144.304,97.1543 145.5,97.5C 147.167,96.5 148.5,95.1667 149.5,93.5C 149.065,95.5417 149.731,97.5417 151.5,99.5C 151.865,97.154 152.365,94.4873 153,91.5C 153.08,93.2482 153.913,94.9149 155.5,96.5C 156.325,97.3857 157.325,97.719 158.5,97.5C 158.094,95.8908 158.094,94.5575 158.5,93.5C 159.281,94.7366 160.281,95.7366 161.5,96.5C 163.429,95.6198 165.263,94.6198 167,93.5C 167.873,93.7355 168.707,94.0688 169.5,94.5C 171.759,92.1487 173.259,92.8154 174,96.5C 174.423,95.0439 175.256,94.5439 176.5,95C 176.943,96.5185 176.276,97.6852 174.5,98.5C 175.693,100.384 177.359,100.884 179.5,100C 178.833,99.6667 178.167,99.3333 177.5,99C 179.364,97.5945 181.197,97.0945 183,97.5C 183.976,99.8872 185.809,101.054 188.5,101C 187.978,101.561 187.645,102.228 187.5,103C 188.5,104.5 189.5,106 190.5,107.5C 191.425,106.359 192.259,106.359 193,107.5C 195.168,106.371 195.668,104.871 194.5,103C 195.715,100.904 196.549,101.071 197,103.5C 198.333,102.833 199.667,102.167 201,101.5C 202.84,102.833 203.34,102.666 202.5,101C 203.549,100.508 204.549,100.674 205.5,101.5C 206.192,100.975 206.692,100.308 207,99.5C 208.07,102.242 209.57,104.742 211.5,107C 213.066,107.3 214.399,106.8 215.5,105.5 Z"/></g>
<g><path style="opacity:1" fill="#4640dd" d="M 191.5,209.5 C 227.155,208.661 255.155,222.661 275.5,251.5C 282.856,263.895 287.856,277.228 290.5,291.5C 291.627,306.197 289.96,320.531 285.5,334.5C 284.167,338.167 282.833,341.833 281.5,345.5C 257.398,387.715 221.398,404.215 173.5,395C 150.022,387.34 131.688,373.173 118.5,352.5C 108.48,333.057 104.48,312.39 106.5,290.5C 116.322,244.01 144.655,217.01 191.5,209.5 Z"/></g>
<g><path style="opacity:1" fill="#e7cfcd" d="M 325.5,231.5 C 322.639,231.513 321.639,232.679 322.5,235C 319.619,240.604 317.119,246.437 315,252.5C 313.954,254.09 312.787,255.59 311.5,257C 311.957,257.414 312.291,257.914 312.5,258.5C 310.562,262.734 308.562,266.901 306.5,271C 306.645,271.772 306.978,272.439 307.5,273C 306.333,273.5 305.5,274.333 305,275.5C 304.065,280.634 302.232,284.634 299.5,287.5C 299.709,288.086 300.043,288.586 300.5,289C 298.091,293.219 296.257,297.719 295,302.5C 294.333,303.167 293.667,303.833 293,304.5C 292.571,299.953 291.738,295.619 290.5,291.5C 287.856,277.228 282.856,263.895 275.5,251.5C 279.665,247.503 283.998,243.67 288.5,240C 299.845,232.261 312.178,229.428 325.5,231.5 Z"/></g>
<g><path style="opacity:1" fill="#dfc0c7" d="M 325.5,231.5 C 330.536,231.302 335.203,232.302 339.5,234.5C 331.626,255.461 322.959,276.461 313.5,297.5C 313.694,299.07 313.694,300.57 313.5,302C 310.401,307.532 307.734,312.865 305.5,318C 306.668,319.871 306.168,321.371 304,322.5C 302.341,328.634 300.508,334.301 298.5,339.5C 294.407,338.287 290.741,336.287 287.5,333.5C 286.817,333.863 286.15,334.196 285.5,334.5C 289.96,320.531 291.627,306.197 290.5,291.5C 291.738,295.619 292.571,299.953 293,304.5C 293.667,303.833 294.333,303.167 295,302.5C 296.257,297.719 298.091,293.219 300.5,289C 300.043,288.586 299.709,288.086 299.5,287.5C 302.232,284.634 304.065,280.634 305,275.5C 305.5,274.333 306.333,273.5 307.5,273C 306.978,272.439 306.645,271.772 306.5,271C 308.562,266.901 310.562,262.734 312.5,258.5C 312.291,257.914 311.957,257.414 311.5,257C 312.787,255.59 313.954,254.09 315,252.5C 317.119,246.437 319.619,240.604 322.5,235C 321.639,232.679 322.639,231.513 325.5,231.5 Z"/></g>
<g><path style="opacity:1" fill="#d9b5c3" d="M 339.5,234.5 C 344.607,235.551 348.941,237.885 352.5,241.5C 350.617,243.8 348.951,246.3 347.5,249C 349.901,249.805 349.734,250.638 347,251.5C 346.727,253.101 346.227,254.601 345.5,256C 345.833,256.333 346.167,256.667 346.5,257C 343.813,258.341 342.147,260.007 341.5,262C 344.15,264.678 343.65,266.844 340,268.5C 339.125,272.436 337.292,275.102 334.5,276.5C 335.383,277.548 336.05,278.715 336.5,280C 335.069,280.487 333.735,281.821 332.5,284C 333.308,284.308 333.975,284.808 334.5,285.5C 332.525,288.784 331.192,291.951 330.5,295C 329.616,296.098 328.616,296.598 327.5,296.5C 328.263,297.719 329.263,298.719 330.5,299.5C 329.675,300.386 328.675,300.719 327.5,300.5C 326.862,302.46 326.862,304.293 327.5,306C 325.298,309.967 322.965,313.967 320.5,318C 321.167,318.333 321.833,318.667 322.5,319C 321.324,320.674 319.99,322.174 318.5,323.5C 319.025,324.192 319.692,324.692 320.5,325C 319.333,326.167 318.167,327.333 317,328.5C 315.969,332.893 314.136,336.893 311.5,340.5C 312.127,341.417 312.461,342.417 312.5,343.5C 307.554,343.046 302.888,341.713 298.5,339.5C 300.508,334.301 302.341,328.634 304,322.5C 306.168,321.371 306.668,319.871 305.5,318C 307.734,312.865 310.401,307.532 313.5,302C 313.694,300.57 313.694,299.07 313.5,297.5C 322.959,276.461 331.626,255.461 339.5,234.5 Z"/></g>
<g><path style="opacity:1" fill="#d4acbf" d="M 352.5,241.5 C 356.126,243.459 359.126,246.126 361.5,249.5C 349.515,279.476 337.181,310.309 324.5,342C 325.056,342.383 325.389,342.883 325.5,343.5C 321.167,343.5 316.833,343.5 312.5,343.5C 312.461,342.417 312.127,341.417 311.5,340.5C 314.136,336.893 315.969,332.893 317,328.5C 318.167,327.333 319.333,326.167 320.5,325C 319.692,324.692 319.025,324.192 318.5,323.5C 319.99,322.174 321.324,320.674 322.5,319C 321.833,318.667 321.167,318.333 320.5,318C 322.965,313.967 325.298,309.967 327.5,306C 326.862,304.293 326.862,302.46 327.5,300.5C 328.675,300.719 329.675,300.386 330.5,299.5C 329.263,298.719 328.263,297.719 327.5,296.5C 328.616,296.598 329.616,296.098 330.5,295C 331.192,291.951 332.525,288.784 334.5,285.5C 333.975,284.808 333.308,284.308 332.5,284C 333.735,281.821 335.069,280.487 336.5,280C 336.05,278.715 335.383,277.548 334.5,276.5C 337.292,275.102 339.125,272.436 340,268.5C 343.65,266.844 344.15,264.678 341.5,262C 342.147,260.007 343.813,258.341 346.5,257C 346.167,256.667 345.833,256.333 345.5,256C 346.227,254.601 346.727,253.101 347,251.5C 349.734,250.638 349.901,249.805 347.5,249C 348.951,246.3 350.617,243.8 352.5,241.5 Z"/></g>
<g><path style="opacity:1" fill="#e9e7f1" d="M 226.5,253.5 C 222.165,270.172 217.832,286.838 213.5,303.5C 222.173,303.334 230.84,303.5 239.5,304C 242.791,306.332 243.291,309.165 241,312.5C 219.432,328.7 197.599,344.534 175.5,360C 171.419,360.923 169.419,359.256 169.5,355C 173.091,340.803 176.757,326.637 180.5,312.5C 187.822,310.171 195.155,307.837 202.5,305.5C 203.473,305.013 204.473,304.513 205.5,304C 189.503,303.5 173.503,303.333 157.5,303.5C 157.167,303.5 156.833,303.5 156.5,303.5C 156.014,300.245 157.014,297.578 159.5,295.5C 165.988,290.949 172.322,286.449 178.5,282C 183.5,278.333 188.5,274.667 193.5,271C 195.382,268.957 197.049,266.791 198.5,264.5C 206.353,261.027 213.687,256.527 220.5,251C 222.167,250.333 223.833,250.333 225.5,251C 226.252,251.671 226.586,252.504 226.5,253.5 Z"/></g>
<g><path style="opacity:1" fill="#cc9fba" d="M 361.5,249.5 C 376.696,265.972 380.696,284.972 373.5,306.5C 364.604,327.958 348.604,340.292 325.5,343.5C 325.389,342.883 325.056,342.383 324.5,342C 337.181,310.309 349.515,279.476 361.5,249.5 Z"/></g>
<g><path style="opacity:1" fill="#bdbcc9" d="M 226.5,253.5 C 226.586,252.504 226.252,251.671 225.5,251C 223.833,250.333 222.167,250.333 220.5,251C 213.687,256.527 206.353,261.027 198.5,264.5C 205.586,258.777 212.92,253.277 220.5,248C 225.817,246.822 227.817,248.655 226.5,253.5 Z"/></g>
<g><path style="opacity:1" fill="#c2c0cc" d="M 198.5,264.5 C 197.049,266.791 195.382,268.957 193.5,271C 188.5,274.667 183.5,278.333 178.5,282C 172.322,286.449 165.988,290.949 159.5,295.5C 157.014,297.578 156.014,300.245 156.5,303.5C 153.86,300.447 153.86,297.28 156.5,294C 170.398,283.922 184.398,274.088 198.5,264.5 Z"/></g>
<g><path style="opacity:1" fill="#f1f0f7" d="M 421.5,310.5 C 421.5,337.167 421.5,363.833 421.5,390.5C 419.557,389.922 419.223,388.922 420.5,387.5C 419.502,384.972 418.669,384.972 418,387.5C 417.517,386.552 417.351,385.552 417.5,384.5C 415.61,384.297 414.11,384.963 413,386.5C 410.316,385.932 407.816,384.932 405.5,383.5C 404.281,384.263 403.281,385.263 402.5,386.5C 402.891,385.109 402.058,384.109 400,383.5C 398.716,384.572 398.383,385.905 399,387.5C 397.413,386.273 396.079,386.606 395,388.5C 393.886,384.544 393.053,384.544 392.5,388.5C 391.178,388.33 390.011,388.663 389,389.5C 388.16,386.536 387.16,386.203 386,388.5C 385.911,385.151 384.744,384.651 382.5,387C 382.957,387.414 383.291,387.914 383.5,388.5C 382.282,388.109 381.448,388.776 381,390.5C 379.915,389.707 378.748,389.04 377.5,388.5C 374.624,388.243 371.957,389.243 369.5,391.5C 368.029,390.583 366.529,389.583 365,388.5C 364.641,391.544 363.974,391.878 363,389.5C 360.688,389.955 358.688,390.955 357,392.5C 356.667,391.833 356.333,391.167 356,390.5C 354.887,391.711 353.72,391.711 352.5,390.5C 351.808,391.025 351.308,391.692 351,392.5C 349.007,391.328 347.007,390.328 345,389.5C 344.259,390.641 343.425,390.641 342.5,389.5C 341.167,390.5 339.833,391.5 338.5,392.5C 337.476,391.147 336.143,390.48 334.5,390.5C 334.404,394.311 333.738,394.311 332.5,390.5C 330.176,390.877 329.509,391.877 330.5,393.5C 330.167,394.5 329.5,395.167 328.5,395.5C 327.532,394.511 326.365,393.844 325,393.5C 323.21,394.285 321.543,394.285 320,393.5C 319.333,394.167 318.667,394.833 318,395.5C 313.312,395.316 308.312,395.316 303,395.5C 301.739,395.759 300.739,396.426 300,397.5C 300.034,392.77 298.534,392.27 295.5,396C 297.657,397.085 297.824,398.251 296,399.5C 295.333,398.167 294.667,396.833 294,395.5C 291.189,399.874 288.189,400.208 285,396.5C 284.333,397.833 283.667,397.833 283,396.5C 282.309,398.891 281.309,398.891 280,396.5C 277.973,397.212 276.973,398.212 277,399.5C 275.278,399.389 275.112,398.889 276.5,398C 275.874,397.25 275.374,396.416 275,395.5C 274.333,396.833 273.667,398.167 273,399.5C 271.602,398.949 270.268,398.616 269,398.5C 267.863,399.364 266.53,400.364 265,401.5C 264.71,399.956 264.044,398.623 263,397.5C 260.915,399.082 259.415,401.082 258.5,403.5C 255.836,402.166 253.169,401.666 250.5,402C 253.17,400.276 252.837,399.109 249.5,398.5C 248.714,400.343 248.547,402.676 249,405.5C 246.678,403.075 244.345,401.409 242,400.5C 241.641,403.544 240.974,403.878 240,401.5C 239.309,403.891 238.309,403.891 237,401.5C 236.667,402.167 236.333,402.833 236,403.5C 234.018,401.039 231.851,400.539 229.5,402C 230.336,403.243 230.003,404.41 228.5,405.5C 227.264,406.246 225.93,406.579 224.5,406.5C 224.669,401.959 224.002,401.626 222.5,405.5C 222.704,404.471 222.204,403.471 221,402.5C 220.43,405.844 219.264,406.177 217.5,403.5C 216.28,404.711 215.113,404.711 214,403.5C 213,404.833 212,406.167 211,407.5C 210.517,406.552 210.351,405.552 210.5,404.5C 209.5,404.5 208.5,404.5 207.5,404.5C 207.671,407.797 207.005,408.131 205.5,405.5C 205.891,406.891 205.058,407.891 203,408.5C 202.667,407.5 202.333,406.5 202,405.5C 199.8,407.831 197.8,407.831 196,405.5C 195.259,406.641 194.425,406.641 193.5,405.5C 192.201,406.09 191.368,407.09 191,408.5C 190.667,407.833 190.333,407.167 190,406.5C 188.89,408.037 187.39,408.703 185.5,408.5C 185.36,410.124 186.027,411.29 187.5,412C 187,412.5 186.5,413 186,413.5C 184.983,411.624 184.149,409.624 183.5,407.5C 182.575,408.641 181.741,408.641 181,407.5C 180.667,408.167 180.333,408.833 180,409.5C 178.276,406.27 176.276,405.936 174,408.5C 172.181,406.464 170.347,406.297 168.5,408C 169.657,409.589 171.657,410.922 174.5,412C 173.234,412.309 172.067,412.809 171,413.5C 169.933,412.809 168.766,412.309 167.5,412C 168.167,411.667 168.833,411.333 169.5,411C 168.299,410.097 167.465,408.931 167,407.5C 166.692,408.308 166.192,408.975 165.5,409.5C 164.452,408.617 163.285,407.95 162,407.5C 159.5,409.053 157.167,410.719 155,412.5C 152.867,411.647 150.867,411.314 149,411.5C 146.88,414.08 144.713,414.08 142.5,411.5C 139.042,412.571 137.375,414.571 137.5,417.5C 136.749,416.624 136.249,415.624 136,414.5C 135.586,414.957 135.086,415.291 134.5,415.5C 134.511,414.559 134.011,413.892 133,413.5C 131.5,414 130,414.5 128.5,415C 129.888,415.889 129.722,416.389 128,416.5C 122.926,415.76 117.926,415.76 113,416.5C 112.333,413.833 111.667,413.833 111,416.5C 109.062,415.14 107.396,415.473 106,417.5C 104.084,414.967 102.084,414.967 100,417.5C 99.3333,414.833 98.6667,414.833 98,417.5C 97.1376,415.913 96.4709,414.246 96,412.5C 95.0948,415.799 93.9281,418.466 92.5,420.5C 89.5354,418.373 89.8687,417.206 93.5,417C 90.9485,415.452 88.2818,415.452 85.5,417C 87.9288,417.451 88.0955,418.285 86,419.5C 85.0853,418.672 84.4186,417.672 84,416.5C 83.3333,417.833 82.3333,418.833 81,419.5C 79.176,418.762 77.176,418.428 75,418.5C 73.3091,421.131 72.1424,420.797 71.5,417.5C 69.8333,418.833 68.1667,418.833 66.5,417.5C 63.8133,419.394 63.8133,420.061 66.5,419.5C 67.7946,420.098 69.1279,420.598 70.5,421C 69.7471,422.487 68.9138,422.654 68,421.5C 67.6667,422.167 67.3333,422.833 67,423.5C 64.1974,421.906 61.3641,420.239 58.5,418.5C 56.431,420.286 54.2644,421.952 52,423.5C 50.5272,423.097 49.1939,422.43 48,421.5C 47.6322,422.91 46.7989,423.91 45.5,424.5C 44.1667,424.167 42.8333,423.833 41.5,423.5C 40.5224,423.977 39.6891,424.643 39,425.5C 38.6667,424.5 38.3333,423.5 38,422.5C 35.7064,422.791 33.3731,423.791 31,425.5C 29.2382,425.056 29.4049,424.556 31.5,424C 30.8333,423.833 30.1667,423.667 29.5,423.5C 27.5723,424.767 25.739,425.434 24,425.5C 23.6667,424.833 23.3333,424.167 23,423.5C 22.3333,424.833 21.6667,426.167 21,427.5C 20.0197,426.019 18.853,424.685 17.5,423.5C 16.8869,424.98 16.5536,426.313 16.5,427.5C 15.6893,425.609 14.3559,424.276 12.5,423.5C 12.2514,424.582 12.0848,425.915 12,427.5C 11.4387,426.978 10.772,426.645 10,426.5C 8.37446,427.289 6.87446,428.289 5.5,429.5C 4.70696,428.645 5.0403,427.811 6.5,427C 5.87424,426.25 5.37424,425.416 5,424.5C 4,425.833 3,425.833 2,424.5C 1.14825,425.571 0.314913,426.571 -0.5,427.5C -0.5,404.167 -0.5,380.833 -0.5,357.5C 0.991043,357.099 2.65771,356.932 4.5,357C 3.9389,355.324 2.9389,353.991 1.5,353C 3.10799,352.342 4.27465,352.842 5,354.5C 5.30762,353.692 5.80762,353.025 6.5,352.5C 7.93504,354.401 9.60171,354.734 11.5,353.5C 12.1667,354.167 12.8333,354.833 13.5,355.5C 15.3817,354.907 17.2151,354.24 19,353.5C 21.8825,354.397 24.8825,354.397 28,353.5C 28.3333,354.167 28.6667,354.833 29,355.5C 29.7387,354.426 30.7387,353.759 32,353.5C 36.0952,354.053 40.0952,354.387 44,354.5C 44.3114,353.258 43.8114,352.258 42.5,351.5C 43.6682,350.094 43.3348,348.928 41.5,348C 41.8333,347.833 42.1667,347.667 42.5,347.5C 43.4255,348.641 44.2588,348.641 45,347.5C 45.6667,348.833 46.6667,349.833 48,350.5C 49.2504,349.427 50.5838,349.427 52,350.5C 53.5889,349.467 55.5889,348.134 58,346.5C 60.4145,348.472 62.7478,349.806 65,350.5C 65.3333,349.833 65.6667,349.167 66,348.5C 68.2354,349.239 70.2354,349.239 72,348.5C 76.8661,342.833 78.5327,343.167 77,349.5C 78.5737,348.016 79.907,346.349 81,344.5C 81.6172,345.449 81.4506,346.282 80.5,347C 82.4335,347.783 83.9335,347.283 85,345.5C 85.3076,346.308 85.8076,346.975 86.5,347.5C 87.5827,346.635 87.7494,345.635 87,344.5C 85.038,344.969 83.2047,344.303 81.5,342.5C 84.3719,341.217 87.2053,341.217 90,342.5C 91.3333,339.833 92.6667,339.833 94,342.5C 96.4607,341.782 98.9607,341.115 101.5,340.5C 102.831,344.022 104.664,344.355 107,341.5C 108.011,342.337 109.178,342.67 110.5,342.5C 111.848,346.219 113.348,349.886 115,353.5C 116.4,354.748 117.9,355.748 119.5,356.5C 123.821,364.335 129.154,371.502 135.5,378C 142.167,382.667 148.833,387.333 155.5,392C 165.383,395.072 175.383,397.738 185.5,400C 199.712,401.394 213.712,400.394 227.5,397C 234.71,393.366 242.043,390.033 249.5,387C 255.241,382.047 261.074,377.214 267,372.5C 269.615,368.217 272.615,364.217 276,360.5C 278.395,355.71 280.228,350.71 281.5,345.5C 282.833,341.833 284.167,338.167 285.5,334.5C 286.15,334.196 286.817,333.863 287.5,333.5C 290.741,336.287 294.407,338.287 298.5,339.5C 302.888,341.713 307.554,343.046 312.5,343.5C 316.833,343.5 321.167,343.5 325.5,343.5C 348.604,340.292 364.604,327.958 373.5,306.5C 374.397,305.402 375.23,305.402 376,306.5C 377.324,304.5 378.991,302.833 381,301.5C 381.29,303.044 381.956,304.377 383,305.5C 385.51,304.891 387.51,303.558 389,301.5C 390.309,303.891 391.309,303.891 392,301.5C 392.26,303.618 393.26,305.284 395,306.5C 398.012,304.737 397.512,303.57 393.5,303C 394.167,302.833 394.833,302.667 395.5,302.5C 396.955,303.39 398.289,303.39 399.5,302.5C 400.8,306.329 402.967,306.329 406,302.5C 407.385,303.551 408.385,304.884 409,306.5C 409.583,304.998 410.416,303.665 411.5,302.5C 412.839,307.112 414.672,307.445 417,303.5C 419.418,305.327 420.918,307.66 421.5,310.5 Z"/></g>
<g><path style="opacity:1" fill="#7671e4" d="M 157.5,303.5 C 173.503,303.333 189.503,303.5 205.5,304C 204.473,304.513 203.473,305.013 202.5,305.5C 187.5,304.833 172.5,304.167 157.5,303.5 Z"/></g>
<g><path style="opacity:1" fill="#ecebf4" d="M 106.5,290.5 C 104.48,312.39 108.48,333.057 118.5,352.5C 118.833,353.833 119.167,355.167 119.5,356.5C 117.9,355.748 116.4,354.748 115,353.5C 113.348,349.886 111.848,346.219 110.5,342.5C 109.178,342.67 108.011,342.337 107,341.5C 104.664,344.355 102.831,344.022 101.5,340.5C 98.9607,341.115 96.4607,341.782 94,342.5C 92.6667,339.833 91.3333,339.833 90,342.5C 87.2053,341.217 84.3719,341.217 81.5,342.5C 83.2047,344.303 85.038,344.969 87,344.5C 87.7494,345.635 87.5827,346.635 86.5,347.5C 85.8076,346.975 85.3076,346.308 85,345.5C 83.9335,347.283 82.4335,347.783 80.5,347C 81.4506,346.282 81.6172,345.449 81,344.5C 79.907,346.349 78.5737,348.016 77,349.5C 78.5327,343.167 76.8661,342.833 72,348.5C 70.2354,349.239 68.2354,349.239 66,348.5C 65.6667,349.167 65.3333,349.833 65,350.5C 62.7478,349.806 60.4145,348.472 58,346.5C 55.5889,348.134 53.5889,349.467 52,350.5C 50.5838,349.427 49.2504,349.427 48,350.5C 46.6667,349.833 45.6667,348.833 45,347.5C 44.2588,348.641 43.4255,348.641 42.5,347.5C 42.1667,347.667 41.8333,347.833 41.5,348C 43.3348,348.928 43.6682,350.094 42.5,351.5C 43.8114,352.258 44.3114,353.258 44,354.5C 40.0952,354.387 36.0952,354.053 32,353.5C 30.7387,353.759 29.7387,354.426 29,355.5C 28.6667,354.833 28.3333,354.167 28,353.5C 24.8825,354.397 21.8825,354.397 19,353.5C 17.2151,354.24 15.3817,354.907 13.5,355.5C 12.8333,354.833 12.1667,354.167 11.5,353.5C 9.60171,354.734 7.93504,354.401 6.5,352.5C 5.80762,353.025 5.30762,353.692 5,354.5C 4.27465,352.842 3.10799,352.342 1.5,353C 2.9389,353.991 3.9389,355.324 4.5,357C 2.65771,356.932 0.991043,357.099 -0.5,357.5C -0.5,341.5 -0.5,325.5 -0.5,309.5C 36.8606,312.551 72.5272,306.218 106.5,290.5 Z"/></g>
<g><path style="opacity:1" fill="#f4f3f9" d="M 421.5,390.5 C 421.5,400.5 421.5,410.5 421.5,420.5C 420.781,418.909 419.781,417.409 418.5,416C 418.404,414.627 418.57,413.127 419,411.5C 417.605,412.815 416.605,412.481 416,410.5C 415.437,413.142 413.937,413.809 411.5,412.5C 410.117,415.076 409.283,414.742 409,411.5C 407.807,412.978 407.307,414.312 407.5,415.5C 406.757,414.092 405.923,412.759 405,411.5C 403.445,413.146 401.779,413.479 400,412.5C 399.887,414.974 398.887,416.974 397,418.5C 393.982,417.239 394.148,415.905 397.5,414.5C 397.167,414.167 396.833,413.833 396.5,413.5C 394.167,414.833 391.833,414.833 389.5,413.5C 389.167,413.833 388.833,414.167 388.5,414.5C 389.167,415.5 389.833,416.5 390.5,417.5C 389.478,418.354 388.645,419.354 388,420.5C 387.767,418.22 386.934,416.22 385.5,414.5C 384.201,415.09 383.368,416.09 383,417.5C 382.333,416.167 381.667,416.167 381,417.5C 380.333,414.833 379.667,414.833 379,417.5C 377.54,415.578 375.873,414.911 374,415.5C 373.333,416.833 372.667,418.167 372,419.5C 369.704,419.066 367.038,418.732 364,418.5C 363.437,419.725 363.77,420.725 365,421.5C 365.893,420.289 366.726,420.289 367.5,421.5C 365.415,423.575 363.581,423.575 362,421.5C 360.957,425.226 360.457,424.893 360.5,420.5C 358.61,420.297 357.11,420.963 356,422.5C 354.691,420.109 353.691,420.109 353,422.5C 351.846,420.043 350.512,420.043 349,422.5C 347.68,420.183 346.014,418.183 344,416.5C 342.967,420.278 340.634,421.611 337,420.5C 334.132,422.425 331.465,422.425 329,420.5C 328.837,422.387 329.671,423.887 331.5,425C 330.207,425.49 328.873,425.657 327.5,425.5C 327.911,422.724 327.078,422.057 325,423.5C 323.278,423.389 323.112,422.889 324.5,422C 321.429,421.853 318.596,421.02 316,419.5C 315.075,420.047 314.242,420.713 313.5,421.5C 314.641,422.425 314.641,423.259 313.5,424C 317.985,423.676 318.318,424.843 314.5,427.5C 313.147,426.315 311.98,424.981 311,423.5C 310.311,424.357 309.478,425.023 308.5,425.5C 307.033,424.305 305.533,424.305 304,425.5C 302.174,424.99 302.007,424.156 303.5,423C 302.407,421.635 301.074,421.301 299.5,422C 300.167,422.333 300.833,422.667 301.5,423C 299.91,424.046 298.41,425.213 297,426.5C 296.333,425.833 295.667,425.167 295,424.5C 292.572,424.214 290.072,424.214 287.5,424.5C 286.353,424.182 285.519,423.516 285,422.5C 283.795,423.071 282.628,423.738 281.5,424.5C 279.545,426.583 278.212,428.583 277.5,430.5C 275.566,430.099 274.066,429.099 273,427.5C 272.586,427.957 272.086,428.291 271.5,428.5C 271.167,427.167 270.833,425.833 270.5,424.5C 267.539,425.183 267.205,426.016 269.5,427C 268.809,428.067 268.309,429.234 268,430.5C 265.888,429.777 263.888,428.777 262,427.5C 260.189,428.078 258.355,428.578 256.5,429C 257.604,430.131 257.271,430.965 255.5,431.5C 255.002,430.397 254.669,429.397 254.5,428.5C 253.833,429.5 253.167,430.5 252.5,431.5C 252.331,430.603 251.998,429.603 251.5,428.5C 250.575,429.641 249.741,429.641 249,428.5C 249.208,432.669 247.708,433.836 244.5,432C 245.784,430.703 245.617,429.536 244,428.5C 242.635,432.172 240.635,432.506 238,429.5C 235.942,430.109 235.109,431.109 235.5,432.5C 234.193,431.184 232.693,430.184 231,429.5C 230.3,431.032 229.134,432.032 227.5,432.5C 226.316,430.954 225.316,429.287 224.5,427.5C 225.028,430.003 224.028,432.169 221.5,434C 219.865,434.54 218.532,434.04 217.5,432.5C 216.402,436.361 215.569,436.361 215,432.5C 213.315,434.988 211.981,434.655 211,431.5C 208.996,435.58 206.33,436.246 203,433.5C 202.667,434.167 202.333,434.833 202,435.5C 201.576,433.385 200.409,432.552 198.5,433C 201.354,435.078 201.688,437.245 199.5,439.5C 199.306,437.958 198.139,436.625 196,435.5C 195.667,436.167 195.333,436.833 195,437.5C 193.088,436.308 191.088,435.308 189,434.5C 188.147,436.125 187.147,436.458 186,435.5C 185.667,436.5 185.333,437.5 185,438.5C 182.528,435.159 180.528,435.159 179,438.5C 178.311,437.643 177.478,436.977 176.5,436.5C 175.575,437.641 174.741,437.641 174,436.5C 173.195,438.901 172.362,438.734 171.5,436C 168.931,434.574 166.764,434.741 165,436.5C 164.421,432.614 163.588,432.614 162.5,436.5C 162.709,437.086 163.043,437.586 163.5,438C 160.515,440.613 157.182,441.446 153.5,440.5C 151.742,441.128 150.242,442.128 149,443.5C 147.77,442.725 147.437,441.725 148,440.5C 150.088,439.692 152.088,438.692 154,437.5C 156.033,438.016 156.033,437.35 154,435.5C 150.744,436.58 147.578,437.914 144.5,439.5C 143.808,440.025 143.308,440.692 143,441.5C 141.314,438.978 139.981,439.311 139,442.5C 137.345,442.198 136.012,440.864 135,438.5C 134.667,438.833 134.333,439.167 134,439.5C 133.915,437.915 133.749,436.582 133.5,435.5C 131.729,436.035 131.396,436.869 132.5,438C 131.062,438.219 129.729,438.719 128.5,439.5C 129.917,439.859 131.25,441.025 132.5,443C 130.956,444.187 129.289,444.52 127.5,444C 128.167,443.667 128.833,443.333 129.5,443C 128.299,442.097 127.465,440.931 127,439.5C 124.958,440.285 122.958,439.952 121,438.5C 120.097,439.701 118.931,440.535 117.5,441C 118.308,441.308 118.975,441.808 119.5,442.5C 118.311,443.429 116.978,443.762 115.5,443.5C 116.014,441.488 116.18,439.488 116,437.5C 115.167,438.333 114.333,439.167 113.5,440C 114.711,440.893 114.711,441.726 113.5,442.5C 112.5,442 111.5,441.5 110.5,441C 111.654,440.086 111.487,439.253 110,438.5C 109.667,439.5 109.333,440.5 109,441.5C 108.163,439.993 106.996,439.493 105.5,440C 106.551,441.385 107.884,442.385 109.5,443C 107.765,443.651 106.098,443.485 104.5,442.5C 103.269,443.651 103.269,444.817 104.5,446C 104,446.5 103.5,447 103,447.5C 100.777,445.208 99.1099,442.542 98,439.5C 96.9916,439.982 95.825,440.148 94.5,440C 96.8458,441.533 97.8458,443.366 97.5,445.5C 96.5224,445.023 95.6891,444.357 95,443.5C 94.6322,444.91 93.7989,445.91 92.5,446.5C 89.6231,445.33 87.4564,445.996 86,448.5C 85.5172,447.552 85.3505,446.552 85.5,445.5C 84.448,445.649 83.448,445.483 82.5,445C 83.6956,444.346 83.6956,443.846 82.5,443.5C 81.8679,445.737 80.5346,447.403 78.5,448.5C 77.1973,447.282 76.1973,447.615 75.5,449.5C 74.6667,448.5 73.8333,447.5 73,446.5C 70.3143,450.36 68.8143,450.194 68.5,446C 66.8374,445.735 65.3374,446.235 64,447.5C 63.7508,446.376 63.2508,445.376 62.5,444.5C 60.8203,446.994 58.3203,449.328 55,451.5C 53.7425,451.15 53.4092,450.483 54,449.5C 54.9138,450.654 55.7471,450.487 56.5,449C 55.1667,448.667 53.8333,448.333 52.5,448C 53.9561,447.577 54.4561,446.744 54,445.5C 52.4815,445.057 51.3148,445.724 50.5,447.5C 50.5105,446.559 50.0105,445.892 49,445.5C 47.1648,447.084 45.1648,448.417 43,449.5C 42.6924,448.692 42.1924,448.025 41.5,447.5C 39.5764,447.106 37.743,447.773 36,449.5C 33.2604,449.239 30.5937,449.239 28,449.5C 26.6998,448.293 25.1998,447.626 23.5,447.5C 23.3601,449.124 24.0267,450.29 25.5,451C 24.0196,453.668 22.5196,453.835 21,451.5C 20,452.5 19,453.5 18,454.5C 17.2131,453.289 16.5464,452.289 16,451.5C 14.7147,451.95 13.548,452.617 12.5,453.5C 10.6745,452.429 9.50785,453.096 9,455.5C 8.13759,453.913 7.47093,452.246 7,450.5C 5.44185,451.345 4.44185,450.679 4,448.5C 3.66667,450.167 3.33333,451.833 3,453.5C 2.51722,452.552 2.35055,451.552 2.5,450.5C 1.5,450.5 0.5,450.5 -0.5,450.5C -0.5,442.833 -0.5,435.167 -0.5,427.5C 0.314913,426.571 1.14825,425.571 2,424.5C 3,425.833 4,425.833 5,424.5C 5.37424,425.416 5.87424,426.25 6.5,427C 5.0403,427.811 4.70696,428.645 5.5,429.5C 6.87446,428.289 8.37446,427.289 10,426.5C 10.772,426.645 11.4387,426.978 12,427.5C 12.0848,425.915 12.2514,424.582 12.5,423.5C 14.3559,424.276 15.6893,425.609 16.5,427.5C 16.5536,426.313 16.8869,424.98 17.5,423.5C 18.853,424.685 20.0197,426.019 21,427.5C 21.6667,426.167 22.3333,424.833 23,423.5C 23.3333,424.167 23.6667,424.833 24,425.5C 25.739,425.434 27.5723,424.767 29.5,423.5C 30.1667,423.667 30.8333,423.833 31.5,424C 29.4049,424.556 29.2382,425.056 31,425.5C 33.3731,423.791 35.7064,422.791 38,422.5C 38.3333,423.5 38.6667,424.5 39,425.5C 39.6891,424.643 40.5224,423.977 41.5,423.5C 42.8333,423.833 44.1667,424.167 45.5,424.5C 46.7989,423.91 47.6322,422.91 48,421.5C 49.1939,422.43 50.5272,423.097 52,423.5C 54.2644,421.952 56.431,420.286 58.5,418.5C 61.3641,420.239 64.1974,421.906 67,423.5C 67.3333,422.833 67.6667,422.167 68,421.5C 68.9138,422.654 69.7471,422.487 70.5,421C 69.1279,420.598 67.7946,420.098 66.5,419.5C 63.8133,420.061 63.8133,419.394 66.5,417.5C 68.1667,418.833 69.8333,418.833 71.5,417.5C 72.1424,420.797 73.3091,421.131 75,418.5C 77.176,418.428 79.176,418.762 81,419.5C 82.3333,418.833 83.3333,417.833 84,416.5C 84.4186,417.672 85.0853,418.672 86,419.5C 88.0955,418.285 87.9288,417.451 85.5,417C 88.2818,415.452 90.9485,415.452 93.5,417C 89.8687,417.206 89.5354,418.373 92.5,420.5C 93.9281,418.466 95.0948,415.799 96,412.5C 96.4709,414.246 97.1376,415.913 98,417.5C 98.6667,414.833 99.3333,414.833 100,417.5C 102.084,414.967 104.084,414.967 106,417.5C 107.396,415.473 109.062,415.14 111,416.5C 111.667,413.833 112.333,413.833 113,416.5C 117.926,415.76 122.926,415.76 128,416.5C 129.722,416.389 129.888,415.889 128.5,415C 130,414.5 131.5,414 133,413.5C 134.011,413.892 134.511,414.559 134.5,415.5C 135.086,415.291 135.586,414.957 136,414.5C 136.249,415.624 136.749,416.624 137.5,417.5C 137.375,414.571 139.042,412.571 142.5,411.5C 144.713,414.08 146.88,414.08 149,411.5C 150.867,411.314 152.867,411.647 155,412.5C 157.167,410.719 159.5,409.053 162,407.5C 163.285,407.95 164.452,408.617 165.5,409.5C 166.192,408.975 166.692,408.308 167,407.5C 167.465,408.931 168.299,410.097 169.5,411C 168.833,411.333 168.167,411.667 167.5,412C 168.766,412.309 169.933,412.809 171,413.5C 172.067,412.809 173.234,412.309 174.5,412C 171.657,410.922 169.657,409.589 168.5,408C 170.347,406.297 172.181,406.464 174,408.5C 176.276,405.936 178.276,406.27 180,409.5C 180.333,408.833 180.667,408.167 181,407.5C 181.741,408.641 182.575,408.641 183.5,407.5C 184.149,409.624 184.983,411.624 186,413.5C 186.5,413 187,412.5 187.5,412C 186.027,411.29 185.36,410.124 185.5,408.5C 187.39,408.703 188.89,408.037 190,406.5C 190.333,407.167 190.667,407.833 191,408.5C 191.368,407.09 192.201,406.09 193.5,405.5C 194.425,406.641 195.259,406.641 196,405.5C 197.8,407.831 199.8,407.831 202,405.5C 202.333,406.5 202.667,407.5 203,408.5C 205.058,407.891 205.891,406.891 205.5,405.5C 207.005,408.131 207.671,407.797 207.5,404.5C 208.5,404.5 209.5,404.5 210.5,404.5C 210.351,405.552 210.517,406.552 211,407.5C 212,406.167 213,404.833 214,403.5C 215.113,404.711 216.28,404.711 217.5,403.5C 219.264,406.177 220.43,405.844 221,402.5C 222.204,403.471 222.704,404.471 222.5,405.5C 224.002,401.626 224.669,401.959 224.5,406.5C 225.93,406.579 227.264,406.246 228.5,405.5C 230.003,404.41 230.336,403.243 229.5,402C 231.851,400.539 234.018,401.039 236,403.5C 236.333,402.833 236.667,402.167 237,401.5C 238.309,403.891 239.309,403.891 240,401.5C 240.974,403.878 241.641,403.544 242,400.5C 244.345,401.409 246.678,403.075 249,405.5C 248.547,402.676 248.714,400.343 249.5,398.5C 252.837,399.109 253.17,400.276 250.5,402C 253.169,401.666 255.836,402.166 258.5,403.5C 259.415,401.082 260.915,399.082 263,397.5C 264.044,398.623 264.71,399.956 265,401.5C 266.53,400.364 267.863,399.364 269,398.5C 270.268,398.616 271.602,398.949 273,399.5C 273.667,398.167 274.333,396.833 275,395.5C 275.374,396.416 275.874,397.25 276.5,398C 275.112,398.889 275.278,399.389 277,399.5C 276.973,398.212 277.973,397.212 280,396.5C 281.309,398.891 282.309,398.891 283,396.5C 283.667,397.833 284.333,397.833 285,396.5C 288.189,400.208 291.189,399.874 294,395.5C 294.667,396.833 295.333,398.167 296,399.5C 297.824,398.251 297.657,397.085 295.5,396C 298.534,392.27 300.034,392.77 300,397.5C 300.739,396.426 301.739,395.759 303,395.5C 308.312,395.316 313.312,395.316 318,395.5C 318.667,394.833 319.333,394.167 320,393.5C 321.543,394.285 323.21,394.285 325,393.5C 326.365,393.844 327.532,394.511 328.5,395.5C 329.5,395.167 330.167,394.5 330.5,393.5C 329.509,391.877 330.176,390.877 332.5,390.5C 333.738,394.311 334.404,394.311 334.5,390.5C 336.143,390.48 337.476,391.147 338.5,392.5C 339.833,391.5 341.167,390.5 342.5,389.5C 343.425,390.641 344.259,390.641 345,389.5C 347.007,390.328 349.007,391.328 351,392.5C 351.308,391.692 351.808,391.025 352.5,390.5C 353.72,391.711 354.887,391.711 356,390.5C 356.333,391.167 356.667,391.833 357,392.5C 358.688,390.955 360.688,389.955 363,389.5C 363.974,391.878 364.641,391.544 365,388.5C 366.529,389.583 368.029,390.583 369.5,391.5C 371.957,389.243 374.624,388.243 377.5,388.5C 378.748,389.04 379.915,389.707 381,390.5C 381.448,388.776 382.282,388.109 383.5,388.5C 383.291,387.914 382.957,387.414 382.5,387C 384.744,384.651 385.911,385.151 386,388.5C 387.16,386.203 388.16,386.536 389,389.5C 390.011,388.663 391.178,388.33 392.5,388.5C 393.053,384.544 393.886,384.544 395,388.5C 396.079,386.606 397.413,386.273 399,387.5C 398.383,385.905 398.716,384.572 400,383.5C 402.058,384.109 402.891,385.109 402.5,386.5C 403.281,385.263 404.281,384.263 405.5,383.5C 407.816,384.932 410.316,385.932 413,386.5C 414.11,384.963 415.61,384.297 417.5,384.5C 417.351,385.552 417.517,386.552 418,387.5C 418.669,384.972 419.502,384.972 420.5,387.5C 419.223,388.922 419.557,389.922 421.5,390.5 Z"/></g>
<g><path style="opacity:1" fill="#c7c6cf" d="M 281.5,345.5 C 280.228,350.71 278.395,355.71 276,360.5C 272.615,364.217 269.615,368.217 267,372.5C 261.074,377.214 255.241,382.047 249.5,387C 242.043,390.033 234.71,393.366 227.5,397C 213.712,400.394 199.712,401.394 185.5,400C 175.383,397.738 165.383,395.072 155.5,392C 148.833,387.333 142.167,382.667 135.5,378C 129.154,371.502 123.821,364.335 119.5,356.5C 119.167,355.167 118.833,353.833 118.5,352.5C 131.688,373.173 150.022,387.34 173.5,395C 221.398,404.215 257.398,387.715 281.5,345.5 Z"/></g>
<g><path style="opacity:1" fill="#f7f7fa" d="M 421.5,420.5 C 421.5,444.5 421.5,468.5 421.5,492.5C 419.492,491.699 418.992,490.366 420,488.5C 417.501,487.202 415.167,487.536 413,489.5C 411.333,488.833 409.667,488.167 408,487.5C 407.026,489.878 406.359,489.544 406,486.5C 405.259,487.641 404.425,487.641 403.5,486.5C 402.757,487.908 401.923,489.241 401,490.5C 399.657,489.786 398.324,490.12 397,491.5C 396.085,490.672 395.419,489.672 395,488.5C 393.853,489.458 392.853,489.125 392,487.5C 391.259,488.641 390.425,488.641 389.5,487.5C 388.719,488.729 388.219,490.062 388,491.5C 386.1,488.992 384.1,487.325 382,486.5C 380.956,487.623 380.29,488.956 380,490.5C 378.705,489.159 378.205,487.826 378.5,486.5C 375.885,489.321 372.885,490.654 369.5,490.5C 367.729,489.965 367.396,489.131 368.5,488C 365.533,485.813 362.866,486.147 360.5,489C 360.833,489.333 361.167,489.667 361.5,490C 359.792,491.062 359.126,492.229 359.5,493.5C 358.808,492.975 358.308,492.308 358,491.5C 356.636,492.258 355.469,491.758 354.5,490C 352.835,489.212 351.169,488.878 349.5,489C 351.381,490.872 351.381,493.039 349.5,495.5C 348.304,495.154 348.304,494.654 349.5,494C 345.085,493.177 344.752,492.01 348.5,490.5C 348.333,490.167 348.167,489.833 348,489.5C 343.368,492.631 338.701,492.965 334,490.5C 333.25,491.126 332.416,491.626 331.5,492C 335.434,495.297 335.268,495.797 331,493.5C 328.3,495.511 325.634,497.178 323,498.5C 321.688,496.342 320.022,496.009 318,497.5C 317.085,496.672 316.419,495.672 316,494.5C 315.385,496.116 314.385,497.449 313,498.5C 311.212,497.642 309.378,496.642 307.5,495.5C 305.844,497.022 304.677,496.689 304,494.5C 301.888,496.922 299.888,496.922 298,494.5C 297.586,494.957 297.086,495.291 296.5,495.5C 295.167,494.5 293.833,493.5 292.5,492.5C 290.878,494.439 289.044,494.772 287,493.5C 285.867,497.188 283.701,498.188 280.5,496.5C 280.5,497.5 280.5,498.5 280.5,499.5C 278.418,499.528 276.584,498.861 275,497.5C 272.928,500.154 271.261,499.82 270,496.5C 269.508,497.549 269.674,498.549 270.5,499.5C 270.154,500.696 269.654,500.696 269,499.5C 269.077,500.738 268.911,501.738 268.5,502.5C 266.271,501.037 263.937,500.203 261.5,500C 260.809,498.933 260.309,497.766 260,496.5C 259.033,497.678 258.533,499.011 258.5,500.5C 257.5,499.833 256.5,499.167 255.5,498.5C 254.334,500.387 253.668,502.053 253.5,503.5C 249.068,498.323 245.902,498.656 244,504.5C 242.615,503.449 241.615,502.116 241,500.5C 240.333,501.833 239.667,503.167 239,504.5C 238.667,503.5 238.333,502.5 238,501.5C 235.089,503.429 232.255,503.596 229.5,502C 231.878,501.026 231.544,500.359 228.5,500C 230.932,498.913 230.598,498.413 227.5,498.5C 227.33,499.822 227.663,500.989 228.5,502C 227.216,502.684 226.049,502.517 225,501.5C 223.68,503.583 222.346,503.249 221,500.5C 220.632,501.91 219.799,502.91 218.5,503.5C 217.037,503.368 215.537,503.035 214,502.5C 212.51,503.682 211.177,504.682 210,505.5C 207.962,500.395 206.295,500.395 205,505.5C 203.937,504.562 202.77,503.562 201.5,502.5C 201.891,503.891 201.058,504.891 199,505.5C 198.915,507.085 198.749,508.418 198.5,509.5C 197.749,508.624 197.249,507.624 197,506.5C 194.443,507.646 193.11,506.646 193,503.5C 192.333,506.167 191.667,506.167 191,503.5C 189.667,504.833 188.333,504.833 187,503.5C 184.365,504.473 182.365,506.14 181,508.5C 179.622,506.787 177.955,505.453 176,504.5C 174.333,505.5 172.667,506.5 171,507.5C 169.301,506.594 167.467,506.261 165.5,506.5C 165.649,507.552 165.483,508.552 165,509.5C 164.333,508.167 163.667,508.167 163,509.5C 162.716,507.114 161.716,506.448 160,507.5C 159,506.5 158,505.5 157,504.5C 156.365,505.966 155.531,507.3 154.5,508.5C 155.815,509.895 155.481,510.895 153.5,511.5C 152.904,510.284 152.737,508.951 153,507.5C 152.097,508.701 150.931,509.535 149.5,510C 151.595,510.556 151.762,511.056 150,511.5C 149.055,511.095 148.388,510.428 148,509.5C 147.667,510.167 147.333,510.833 147,511.5C 145.956,510.377 145.29,509.044 145,507.5C 143.992,507.982 142.825,508.148 141.5,508C 142.451,508.718 142.617,509.551 142,510.5C 141.333,509.167 140.667,509.167 140,510.5C 139.667,509.833 139.333,509.167 139,508.5C 138.612,509.428 137.945,510.095 137,510.5C 135.503,509.523 134.003,508.523 132.5,507.5C 130.813,507.76 129.313,508.427 128,509.5C 126.594,508.332 125.428,508.665 124.5,510.5C 124.167,509.833 123.833,509.167 123.5,508.5C 122.643,509.736 121.977,511.069 121.5,512.5C 120.726,513.711 119.893,513.711 119,512.5C 118.667,513.167 118.333,513.833 118,514.5C 115.782,512.908 114.115,510.908 113,508.5C 112.743,510.295 112.077,512.295 111,514.5C 110.309,512.109 109.309,512.109 108,514.5C 107.333,513.167 106.667,511.833 106,510.5C 105.536,516.175 104.869,516.508 104,511.5C 102.667,512.833 101.333,514.167 100,515.5C 98,515.5 96,515.5 94,515.5C 93.3333,512.833 92.6667,512.833 92,515.5C 90.6015,514.949 89.2682,514.616 88,514.5C 87.6667,515.167 87.3333,515.833 87,516.5C 85.7964,515.529 85.2964,514.529 85.5,513.5C 83.936,516.136 82.6026,515.969 81.5,513C 80.552,512.517 79.552,512.351 78.5,512.5C 78.3601,514.124 79.0267,515.29 80.5,516C 80,516.167 79.5,516.333 79,516.5C 77.85,515.576 76.85,515.576 76,516.5C 75.773,513.94 74.4397,512.274 72,511.5C 71.6886,512.742 72.1886,513.742 73.5,514.5C 72.7376,514.911 71.7376,515.077 70.5,515C 71.9597,515.811 72.293,516.645 71.5,517.5C 70.2807,516.737 69.2807,515.737 68.5,514.5C 67.5745,515.641 66.7412,515.641 66,514.5C 65.3333,515.833 64.3333,516.833 63,517.5C 61.1355,518.081 59.4688,517.414 58,515.5C 55.7,516.107 53.2,516.107 50.5,515.5C 48.8539,516.779 47.6872,518.445 47,520.5C 44.6667,519.167 42.3333,517.833 40,516.5C 39.2496,517.126 38.4162,517.626 37.5,518C 38.6537,518.914 38.487,519.747 37,520.5C 36.0853,519.672 35.4186,518.672 35,517.5C 34.3333,518.833 33.3333,519.833 32,520.5C 29.3333,519.833 26.6667,519.167 24,518.5C 23.3333,519.833 22.6667,521.167 22,522.5C 19.5971,521.121 17.4304,519.455 15.5,517.5C 14.3044,517.846 14.3044,518.346 15.5,519C 14.5509,519.617 13.7175,519.451 13,518.5C 11.6914,520.891 10.6914,520.891 10,518.5C 7.36505,519.473 5.36505,521.14 4,523.5C 3.63225,522.09 2.79892,521.09 1.5,520.5C 1.98393,521.781 1.31726,522.781 -0.5,523.5C -0.5,499.167 -0.5,474.833 -0.5,450.5C 0.5,450.5 1.5,450.5 2.5,450.5C 2.35055,451.552 2.51722,452.552 3,453.5C 3.33333,451.833 3.66667,450.167 4,448.5C 4.44185,450.679 5.44185,451.345 7,450.5C 7.47093,452.246 8.13759,453.913 9,455.5C 9.50785,453.096 10.6745,452.429 12.5,453.5C 13.548,452.617 14.7147,451.95 16,451.5C 16.5464,452.289 17.2131,453.289 18,454.5C 19,453.5 20,452.5 21,451.5C 22.5196,453.835 24.0196,453.668 25.5,451C 24.0267,450.29 23.3601,449.124 23.5,447.5C 25.1998,447.626 26.6998,448.293 28,449.5C 30.5937,449.239 33.2604,449.239 36,449.5C 37.743,447.773 39.5764,447.106 41.5,447.5C 42.1924,448.025 42.6924,448.692 43,449.5C 45.1648,448.417 47.1648,447.084 49,445.5C 50.0105,445.892 50.5105,446.559 50.5,447.5C 51.3148,445.724 52.4815,445.057 54,445.5C 54.4561,446.744 53.9561,447.577 52.5,448C 53.8333,448.333 55.1667,448.667 56.5,449C 55.7471,450.487 54.9138,450.654 54,449.5C 53.4092,450.483 53.7425,451.15 55,451.5C 58.3203,449.328 60.8203,446.994 62.5,444.5C 63.2508,445.376 63.7508,446.376 64,447.5C 65.3374,446.235 66.8374,445.735 68.5,446C 68.8143,450.194 70.3143,450.36 73,446.5C 73.8333,447.5 74.6667,448.5 75.5,449.5C 76.1973,447.615 77.1973,447.282 78.5,448.5C 80.5346,447.403 81.8679,445.737 82.5,443.5C 83.6956,443.846 83.6956,444.346 82.5,445C 83.448,445.483 84.448,445.649 85.5,445.5C 85.3505,446.552 85.5172,447.552 86,448.5C 87.4564,445.996 89.6231,445.33 92.5,446.5C 93.7989,445.91 94.6322,444.91 95,443.5C 95.6891,444.357 96.5224,445.023 97.5,445.5C 97.8458,443.366 96.8458,441.533 94.5,440C 95.825,440.148 96.9916,439.982 98,439.5C 99.1099,442.542 100.777,445.208 103,447.5C 103.5,447 104,446.5 104.5,446C 103.269,444.817 103.269,443.651 104.5,442.5C 106.098,443.485 107.765,443.651 109.5,443C 107.884,442.385 106.551,441.385 105.5,440C 106.996,439.493 108.163,439.993 109,441.5C 109.333,440.5 109.667,439.5 110,438.5C 111.487,439.253 111.654,440.086 110.5,441C 111.5,441.5 112.5,442 113.5,442.5C 114.711,441.726 114.711,440.893 113.5,440C 114.333,439.167 115.167,438.333 116,437.5C 116.18,439.488 116.014,441.488 115.5,443.5C 116.978,443.762 118.311,443.429 119.5,442.5C 118.975,441.808 118.308,441.308 117.5,441C 118.931,440.535 120.097,439.701 121,438.5C 122.958,439.952 124.958,440.285 127,439.5C 127.465,440.931 128.299,442.097 129.5,443C 128.833,443.333 128.167,443.667 127.5,444C 129.289,444.52 130.956,444.187 132.5,443C 131.25,441.025 129.917,439.859 128.5,439.5C 129.729,438.719 131.062,438.219 132.5,438C 131.396,436.869 131.729,436.035 133.5,435.5C 133.749,436.582 133.915,437.915 134,439.5C 134.333,439.167 134.667,438.833 135,438.5C 136.012,440.864 137.345,442.198 139,442.5C 139.981,439.311 141.314,438.978 143,441.5C 143.308,440.692 143.808,440.025 144.5,439.5C 147.578,437.914 150.744,436.58 154,435.5C 156.033,437.35 156.033,438.016 154,437.5C 152.088,438.692 150.088,439.692 148,440.5C 147.437,441.725 147.77,442.725 149,443.5C 150.242,442.128 151.742,441.128 153.5,440.5C 157.182,441.446 160.515,440.613 163.5,438C 163.043,437.586 162.709,437.086 162.5,436.5C 163.588,432.614 164.421,432.614 165,436.5C 166.764,434.741 168.931,434.574 171.5,436C 172.362,438.734 173.195,438.901 174,436.5C 174.741,437.641 175.575,437.641 176.5,436.5C 177.478,436.977 178.311,437.643 179,438.5C 180.528,435.159 182.528,435.159 185,438.5C 185.333,437.5 185.667,436.5 186,435.5C 187.147,436.458 188.147,436.125 189,434.5C 191.088,435.308 193.088,436.308 195,437.5C 195.333,436.833 195.667,436.167 196,435.5C 198.139,436.625 199.306,437.958 199.5,439.5C 201.688,437.245 201.354,435.078 198.5,433C 200.409,432.552 201.576,433.385 202,435.5C 202.333,434.833 202.667,434.167 203,433.5C 206.33,436.246 208.996,435.58 211,431.5C 211.981,434.655 213.315,434.988 215,432.5C 215.569,436.361 216.402,436.361 217.5,432.5C 218.532,434.04 219.865,434.54 221.5,434C 224.028,432.169 225.028,430.003 224.5,427.5C 225.316,429.287 226.316,430.954 227.5,432.5C 229.134,432.032 230.3,431.032 231,429.5C 232.693,430.184 234.193,431.184 235.5,432.5C 235.109,431.109 235.942,430.109 238,429.5C 240.635,432.506 242.635,432.172 244,428.5C 245.617,429.536 245.784,430.703 244.5,432C 247.708,433.836 249.208,432.669 249,428.5C 249.741,429.641 250.575,429.641 251.5,428.5C 251.998,429.603 252.331,430.603 252.5,431.5C 253.167,430.5 253.833,429.5 254.5,428.5C 254.669,429.397 255.002,430.397 255.5,431.5C 257.271,430.965 257.604,430.131 256.5,429C 258.355,428.578 260.189,428.078 262,427.5C 263.888,428.777 265.888,429.777 268,430.5C 268.309,429.234 268.809,428.067 269.5,427C 267.205,426.016 267.539,425.183 270.5,424.5C 270.833,425.833 271.167,427.167 271.5,428.5C 272.086,428.291 272.586,427.957 273,427.5C 274.066,429.099 275.566,430.099 277.5,430.5C 278.212,428.583 279.545,426.583 281.5,424.5C 282.628,423.738 283.795,423.071 285,422.5C 285.519,423.516 286.353,424.182 287.5,424.5C 290.072,424.214 292.572,424.214 295,424.5C 295.667,425.167 296.333,425.833 297,426.5C 298.41,425.213 299.91,424.046 301.5,423C 300.833,422.667 300.167,422.333 299.5,422C 301.074,421.301 302.407,421.635 303.5,423C 302.007,424.156 302.174,424.99 304,425.5C 305.533,424.305 307.033,424.305 308.5,425.5C 309.478,425.023 310.311,424.357 311,423.5C 311.98,424.981 313.147,426.315 314.5,427.5C 318.318,424.843 317.985,423.676 313.5,424C 314.641,423.259 314.641,422.425 313.5,421.5C 314.242,420.713 315.075,420.047 316,419.5C 318.596,421.02 321.429,421.853 324.5,422C 323.112,422.889 323.278,423.389 325,423.5C 327.078,422.057 327.911,422.724 327.5,425.5C 328.873,425.657 330.207,425.49 331.5,425C 329.671,423.887 328.837,422.387 329,420.5C 331.465,422.425 334.132,422.425 337,420.5C 340.634,421.611 342.967,420.278 344,416.5C 346.014,418.183 347.68,420.183 349,422.5C 350.512,420.043 351.846,420.043 353,422.5C 353.691,420.109 354.691,420.109 356,422.5C 357.11,420.963 358.61,420.297 360.5,420.5C 360.457,424.893 360.957,425.226 362,421.5C 363.581,423.575 365.415,423.575 367.5,421.5C 366.726,420.289 365.893,420.289 365,421.5C 363.77,420.725 363.437,419.725 364,418.5C 367.038,418.732 369.704,419.066 372,419.5C 372.667,418.167 373.333,416.833 374,415.5C 375.873,414.911 377.54,415.578 379,417.5C 379.667,414.833 380.333,414.833 381,417.5C 381.667,416.167 382.333,416.167 383,417.5C 383.368,416.09 384.201,415.09 385.5,414.5C 386.934,416.22 387.767,418.22 388,420.5C 388.645,419.354 389.478,418.354 390.5,417.5C 389.833,416.5 389.167,415.5 388.5,414.5C 388.833,414.167 389.167,413.833 389.5,413.5C 391.833,414.833 394.167,414.833 396.5,413.5C 396.833,413.833 397.167,414.167 397.5,414.5C 394.148,415.905 393.982,417.239 397,418.5C 398.887,416.974 399.887,414.974 400,412.5C 401.779,413.479 403.445,413.146 405,411.5C 405.923,412.759 406.757,414.092 407.5,415.5C 407.307,414.312 407.807,412.978 409,411.5C 409.283,414.742 410.117,415.076 411.5,412.5C 413.937,413.809 415.437,413.142 416,410.5C 416.605,412.481 417.605,412.815 419,411.5C 418.57,413.127 418.404,414.627 418.5,416C 419.781,417.409 420.781,418.909 421.5,420.5 Z"/></g>
<g><path style="opacity:1" fill="#fbfbfd" d="M 421.5,492.5 C 421.5,521.5 421.5,550.5 421.5,579.5C 280.833,579.5 140.167,579.5 -0.5,579.5C -0.5,560.833 -0.5,542.167 -0.5,523.5C 1.31726,522.781 1.98393,521.781 1.5,520.5C 2.79892,521.09 3.63225,522.09 4,523.5C 5.36505,521.14 7.36505,519.473 10,518.5C 10.6914,520.891 11.6914,520.891 13,518.5C 13.7175,519.451 14.5509,519.617 15.5,519C 14.3044,518.346 14.3044,517.846 15.5,517.5C 17.4304,519.455 19.5971,521.121 22,522.5C 22.6667,521.167 23.3333,519.833 24,518.5C 26.6667,519.167 29.3333,519.833 32,520.5C 33.3333,519.833 34.3333,518.833 35,517.5C 35.4186,518.672 36.0853,519.672 37,520.5C 38.487,519.747 38.6537,518.914 37.5,518C 38.4162,517.626 39.2496,517.126 40,516.5C 42.3333,517.833 44.6667,519.167 47,520.5C 47.6872,518.445 48.8539,516.779 50.5,515.5C 53.2,516.107 55.7,516.107 58,515.5C 59.4688,517.414 61.1355,518.081 63,517.5C 64.3333,516.833 65.3333,515.833 66,514.5C 66.7412,515.641 67.5745,515.641 68.5,514.5C 69.2807,515.737 70.2807,516.737 71.5,517.5C 72.293,516.645 71.9597,515.811 70.5,515C 71.7376,515.077 72.7376,514.911 73.5,514.5C 72.1886,513.742 71.6886,512.742 72,511.5C 74.4397,512.274 75.773,513.94 76,516.5C 76.85,515.576 77.85,515.576 79,516.5C 79.5,516.333 80,516.167 80.5,516C 79.0267,515.29 78.3601,514.124 78.5,512.5C 79.552,512.351 80.552,512.517 81.5,513C 82.6026,515.969 83.936,516.136 85.5,513.5C 85.2964,514.529 85.7964,515.529 87,516.5C 87.3333,515.833 87.6667,515.167 88,514.5C 89.2682,514.616 90.6015,514.949 92,515.5C 92.6667,512.833 93.3333,512.833 94,515.5C 96,515.5 98,515.5 100,515.5C 101.333,514.167 102.667,512.833 104,511.5C 104.869,516.508 105.536,516.175 106,510.5C 106.667,511.833 107.333,513.167 108,514.5C 109.309,512.109 110.309,512.109 111,514.5C 112.077,512.295 112.743,510.295 113,508.5C 114.115,510.908 115.782,512.908 118,514.5C 118.333,513.833 118.667,513.167 119,512.5C 119.893,513.711 120.726,513.711 121.5,512.5C 121.977,511.069 122.643,509.736 123.5,508.5C 123.833,509.167 124.167,509.833 124.5,510.5C 125.428,508.665 126.594,508.332 128,509.5C 129.313,508.427 130.813,507.76 132.5,507.5C 134.003,508.523 135.503,509.523 137,510.5C 137.945,510.095 138.612,509.428 139,508.5C 139.333,509.167 139.667,509.833 140,510.5C 140.667,509.167 141.333,509.167 142,510.5C 142.617,509.551 142.451,508.718 141.5,508C 142.825,508.148 143.992,507.982 145,507.5C 145.29,509.044 145.956,510.377 147,511.5C 147.333,510.833 147.667,510.167 148,509.5C 148.388,510.428 149.055,511.095 150,511.5C 151.762,511.056 151.595,510.556 149.5,510C 150.931,509.535 152.097,508.701 153,507.5C 152.737,508.951 152.904,510.284 153.5,511.5C 155.481,510.895 155.815,509.895 154.5,508.5C 155.531,507.3 156.365,505.966 157,504.5C 158,505.5 159,506.5 160,507.5C 161.716,506.448 162.716,507.114 163,509.5C 163.667,508.167 164.333,508.167 165,509.5C 165.483,508.552 165.649,507.552 165.5,506.5C 167.467,506.261 169.301,506.594 171,507.5C 172.667,506.5 174.333,505.5 176,504.5C 177.955,505.453 179.622,506.787 181,508.5C 182.365,506.14 184.365,504.473 187,503.5C 188.333,504.833 189.667,504.833 191,503.5C 191.667,506.167 192.333,506.167 193,503.5C 193.11,506.646 194.443,507.646 197,506.5C 197.249,507.624 197.749,508.624 198.5,509.5C 198.749,508.418 198.915,507.085 199,505.5C 201.058,504.891 201.891,503.891 201.5,502.5C 202.77,503.562 203.937,504.562 205,505.5C 206.295,500.395 207.962,500.395 210,505.5C 211.177,504.682 212.51,503.682 214,502.5C 215.537,503.035 217.037,503.368 218.5,503.5C 219.799,502.91 220.632,501.91 221,500.5C 222.346,503.249 223.68,503.583 225,501.5C 226.049,502.517 227.216,502.684 228.5,502C 227.663,500.989 227.33,499.822 227.5,498.5C 230.598,498.413 230.932,498.913 228.5,500C 231.544,500.359 231.878,501.026 229.5,502C 232.255,503.596 235.089,503.429 238,501.5C 238.333,502.5 238.667,503.5 239,504.5C 239.667,503.167 240.333,501.833 241,500.5C 241.615,502.116 242.615,503.449 244,504.5C 245.902,498.656 249.068,498.323 253.5,503.5C 253.668,502.053 254.334,500.387 255.5,498.5C 256.5,499.167 257.5,499.833 258.5,500.5C 258.533,499.011 259.033,497.678 260,496.5C 260.309,497.766 260.809,498.933 261.5,500C 263.937,500.203 266.271,501.037 268.5,502.5C 268.911,501.738 269.077,500.738 269,499.5C 269.654,500.696 270.154,500.696 270.5,499.5C 269.674,498.549 269.508,497.549 270,496.5C 271.261,499.82 272.928,500.154 275,497.5C 276.584,498.861 278.418,499.528 280.5,499.5C 280.5,498.5 280.5,497.5 280.5,496.5C 283.701,498.188 285.867,497.188 287,493.5C 289.044,494.772 290.878,494.439 292.5,492.5C 293.833,493.5 295.167,494.5 296.5,495.5C 297.086,495.291 297.586,494.957 298,494.5C 299.888,496.922 301.888,496.922 304,494.5C 304.677,496.689 305.844,497.022 307.5,495.5C 309.378,496.642 311.212,497.642 313,498.5C 314.385,497.449 315.385,496.116 316,494.5C 316.419,495.672 317.085,496.672 318,497.5C 320.022,496.009 321.688,496.342 323,498.5C 325.634,497.178 328.3,495.511 331,493.5C 335.268,495.797 335.434,495.297 331.5,492C 332.416,491.626 333.25,491.126 334,490.5C 338.701,492.965 343.368,492.631 348,489.5C 348.167,489.833 348.333,490.167 348.5,490.5C 344.752,492.01 345.085,493.177 349.5,494C 348.304,494.654 348.304,495.154 349.5,495.5C 351.381,493.039 351.381,490.872 349.5,489C 351.169,488.878 352.835,489.212 354.5,490C 355.469,491.758 356.636,492.258 358,491.5C 358.308,492.308 358.808,492.975 359.5,493.5C 359.126,492.229 359.792,491.062 361.5,490C 361.167,489.667 360.833,489.333 360.5,489C 362.866,486.147 365.533,485.813 368.5,488C 367.396,489.131 367.729,489.965 369.5,490.5C 372.885,490.654 375.885,489.321 378.5,486.5C 378.205,487.826 378.705,489.159 380,490.5C 380.29,488.956 380.956,487.623 382,486.5C 384.1,487.325 386.1,488.992 388,491.5C 388.219,490.062 388.719,488.729 389.5,487.5C 390.425,488.641 391.259,488.641 392,487.5C 392.853,489.125 393.853,489.458 395,488.5C 395.419,489.672 396.085,490.672 397,491.5C 398.324,490.12 399.657,489.786 401,490.5C 401.923,489.241 402.757,487.908 403.5,486.5C 404.425,487.641 405.259,487.641 406,486.5C 406.359,489.544 407.026,489.878 408,487.5C 409.667,488.167 411.333,488.833 413,489.5C 415.167,487.536 417.501,487.202 420,488.5C 418.992,490.366 419.492,491.699 421.5,492.5 Z"/></g>
</svg>
