<?xml version="1.0" encoding="UTF-8"?>
<!DOCTYPE svg PUBLIC "-//W3C//DTD SVG 1.1//EN" "http://www.w3.org/Graphics/SVG/1.1/DTD/svg11.dtd">
<svg xmlns="http://www.w3.org/2000/svg" version="1.1" width="685px" height="97px" style="shape-rendering:geometricPrecision; text-rendering:geometricPrecision; image-rendering:optimizeQuality; fill-rule:evenodd; clip-rule:evenodd" xmlns:xlink="http://www.w3.org/1999/xlink">
<g><path style="opacity:1" fill="#4740dd" d="M 178.5,-0.5 C 189.5,-0.5 200.5,-0.5 211.5,-0.5C 212.93,0.53747 214.597,1.20414 216.5,1.5C 222.101,4.30587 227.434,7.6392 232.5,11.5C 235.167,14.5 237.833,17.5 240.5,20.5C 241.752,22.0009 242.752,23.6675 243.5,25.5C 244.877,27.2895 245.877,29.2895 246.5,31.5C 247.323,33.9872 248.323,36.3206 249.5,38.5C 249.5,39.8333 249.5,41.1667 249.5,42.5C 250.671,48.8598 250.671,55.1931 249.5,61.5C 245.729,76.0338 237.729,87.7005 225.5,96.5C 205.5,96.5 185.5,96.5 165.5,96.5C 153.285,87.7402 145.285,76.0736 141.5,61.5C 140.671,56.547 140.337,51.547 140.5,46.5C 141.167,42.8333 141.833,39.1667 142.5,35.5C 144.467,31.5653 146.467,27.5653 148.5,23.5C 155.903,12.1466 165.903,4.1466 178.5,-0.5 Z"/></g>
<g><path style="opacity:1" fill="#f5f5f9" d="M 211.5,-0.5 C 369.167,-0.5 526.833,-0.5 684.5,-0.5C 684.5,1.5 684.5,3.5 684.5,5.5C 660.161,4.49887 635.661,4.49887 611,5.5C 603.333,4.83333 595.667,4.16667 588,3.5C 573.968,4.73016 559.802,4.73016 545.5,3.5C 544.808,4.02527 544.308,4.69194 544,5.5C 538,4.83333 532,4.16667 526,3.5C 460.808,3.96154 395.641,4.29487 330.5,4.5C 328.587,3.62702 326.753,2.62702 325,1.5C 318.741,2.97088 312.408,3.97088 306,4.5C 303,3.83333 300,3.16667 297,2.5C 291.33,3.86726 285.663,4.53393 280,4.5C 270.29,3.85774 260.624,3.19108 251,2.5C 243.476,2.53437 235.976,2.86771 228.5,3.5C 224.527,2.61562 220.527,1.94896 216.5,1.5C 214.597,1.20414 212.93,0.53747 211.5,-0.5 Z"/></g>
<g><path style="opacity:1" fill="#eadfe4" d="M -0.5,-0.5 C 43.5,-0.5 87.5,-0.5 131.5,-0.5C 133.833,2.83333 136.167,6.16667 138.5,9.5C 135.635,9.94516 133.135,9.2785 131,7.5C 130.333,8.16667 129.667,8.83333 129,9.5C 125.333,8.83333 121.667,8.16667 118,7.5C 116.084,10.033 114.084,10.033 112,7.5C 109.876,8.22716 107.709,8.89383 105.5,9.5C 104.038,8.52909 102.705,8.86242 101.5,10.5C 97.7572,10.0206 93.7572,9.35398 89.5,8.5C 88.5224,8.97665 87.6891,9.64332 87,10.5C 85,9.83333 83,9.16667 81,8.5C 76.6309,9.15221 72.1309,9.15221 67.5,8.5C 64.1031,10.4721 60.6031,10.4721 57,8.5C 56.2613,9.57425 55.2613,10.2409 54,10.5C 51.6667,9.83333 49.3333,9.16667 47,8.5C 43.0056,8.50373 38.6722,8.50373 34,8.5C 30.2302,10.6016 26.5635,10.2683 23,7.5C 19.2608,8.00494 15.2608,8.67161 11,9.5C 8.22364,8.35248 5.55697,8.68582 3,10.5C 1.98873,9.66337 0.822066,9.33003 -0.5,9.5C -0.5,6.16667 -0.5,2.83333 -0.5,-0.5 Z"/></g>
<g><path style="opacity:1" fill="#eeedf6" d="M 131.5,-0.5 C 147.167,-0.5 162.833,-0.5 178.5,-0.5C 165.903,4.1466 155.903,12.1466 148.5,23.5C 147.222,23.2178 146.222,22.5511 145.5,21.5C 143.668,17.1638 141.335,13.1638 138.5,9.5C 136.167,6.16667 133.833,2.83333 131.5,-0.5 Z"/></g>
<g><path style="opacity:1" fill="#eeecf5" d="M 216.5,1.5 C 220.527,1.94896 224.527,2.61562 228.5,3.5C 235.976,2.86771 243.476,2.53437 251,2.5C 260.624,3.19108 270.29,3.85774 280,4.5C 285.663,4.53393 291.33,3.86726 297,2.5C 300,3.16667 303,3.83333 306,4.5C 312.408,3.97088 318.741,2.97088 325,1.5C 326.753,2.62702 328.587,3.62702 330.5,4.5C 395.641,4.29487 460.808,3.96154 526,3.5C 532,4.16667 538,4.83333 544,5.5C 544.308,4.69194 544.808,4.02527 545.5,3.5C 559.802,4.73016 573.968,4.73016 588,3.5C 595.667,4.16667 603.333,4.83333 611,5.5C 635.661,4.49887 660.161,4.49887 684.5,5.5C 684.5,8.83333 684.5,12.1667 684.5,15.5C 683.778,15.0825 683.278,14.4158 683,13.5C 682.667,14.1667 682.333,14.8333 682,15.5C 680.434,16.0606 679.101,15.3939 678,13.5C 676.667,14.1667 675.333,14.8333 674,15.5C 671.103,14.5343 668.437,13.8676 666,13.5C 659.138,17.199 651.971,17.199 644.5,13.5C 601.359,14.4158 556.692,14.7491 510.5,14.5C 507.003,11.9973 503.503,11.9973 500,14.5C 498,13.1667 496,13.1667 494,14.5C 493.667,13.8333 493.333,13.1667 493,12.5C 491.204,13.767 489.371,13.767 487.5,12.5C 485.941,13.0736 484.441,13.7402 483,14.5C 480.333,14.5 477.667,14.5 475,14.5C 474.333,13.8333 473.667,13.1667 473,12.5C 422.377,12.9233 372.377,13.2566 323,13.5C 316,12.8333 309,12.1667 302,11.5C 301.667,12.1667 301.333,12.8333 301,13.5C 291.061,12.2685 281.061,12.2685 271,13.5C 264.925,13.0345 258.925,12.3678 253,11.5C 246.043,12.554 239.21,12.554 232.5,11.5C 227.434,7.6392 222.101,4.30587 216.5,1.5 Z"/></g>
<g><path style="opacity:1" fill="#dfd3dd" d="M 138.5,9.5 C 141.335,13.1638 143.668,17.1638 145.5,21.5C 145.209,22.6491 144.376,23.3158 143,23.5C 140.099,23.0343 137.432,23.0343 135,23.5C 134.667,22.8333 134.333,22.1667 134,21.5C 132.284,21.4106 130.451,21.7439 128.5,22.5C 123.496,21.4396 118.662,20.773 114,20.5C 107.143,21.326 100.477,22.326 94,23.5C 92.7387,20.1796 91.072,19.8463 89,22.5C 88,21.1667 87,21.1667 86,22.5C 85.3109,21.6433 84.4776,20.9767 83.5,20.5C 81.0733,21.6398 78.5733,21.6398 76,20.5C 72.2152,23.0442 68.3819,23.0442 64.5,20.5C 62.2906,21.1062 60.124,21.7728 58,22.5C 57.6667,21.8333 57.3333,21.1667 57,20.5C 54.5338,20.5664 52.0338,20.5664 49.5,20.5C 47.2099,22.967 45.0433,22.967 43,20.5C 37.4144,23.2208 32.0811,22.8875 27,19.5C 26.3333,20.1667 25.6667,20.8333 25,21.5C 24.2588,20.3595 23.4255,20.3595 22.5,21.5C 21.4826,18.972 20.3159,18.972 19,21.5C 16.7683,20.8126 14.6016,20.4793 12.5,20.5C 10.9411,21.0736 9.44113,21.7402 8,22.5C 5.22583,21.477 2.3925,21.477 -0.5,22.5C -0.5,18.1667 -0.5,13.8333 -0.5,9.5C 0.822066,9.33003 1.98873,9.66337 3,10.5C 5.55697,8.68582 8.22364,8.35248 11,9.5C 15.2608,8.67161 19.2608,8.00494 23,7.5C 26.5635,10.2683 30.2302,10.6016 34,8.5C 38.6722,8.50373 43.0056,8.50373 47,8.5C 49.3333,9.16667 51.6667,9.83333 54,10.5C 55.2613,10.2409 56.2613,9.57425 57,8.5C 60.6031,10.4721 64.1031,10.4721 67.5,8.5C 72.1309,9.15221 76.6309,9.15221 81,8.5C 83,9.16667 85,9.83333 87,10.5C 87.6891,9.64332 88.5224,8.97665 89.5,8.5C 93.7572,9.35398 97.7572,10.0206 101.5,10.5C 102.705,8.86242 104.038,8.52909 105.5,9.5C 107.709,8.89383 109.876,8.22716 112,7.5C 114.084,10.033 116.084,10.033 118,7.5C 121.667,8.16667 125.333,8.83333 129,9.5C 129.667,8.83333 130.333,8.16667 131,7.5C 133.135,9.2785 135.635,9.94516 138.5,9.5 Z"/></g>
<g><path style="opacity:1" fill="#e6e4f0" d="M 232.5,11.5 C 239.21,12.554 246.043,12.554 253,11.5C 258.925,12.3678 264.925,13.0345 271,13.5C 281.061,12.2685 291.061,12.2685 301,13.5C 301.333,12.8333 301.667,12.1667 302,11.5C 309,12.1667 316,12.8333 323,13.5C 372.377,13.2566 422.377,12.9233 473,12.5C 473.667,13.1667 474.333,13.8333 475,14.5C 477.667,14.5 480.333,14.5 483,14.5C 484.441,13.7402 485.941,13.0736 487.5,12.5C 489.371,13.767 491.204,13.767 493,12.5C 493.333,13.1667 493.667,13.8333 494,14.5C 496,13.1667 498,13.1667 500,14.5C 503.503,11.9973 507.003,11.9973 510.5,14.5C 556.692,14.7491 601.359,14.4158 644.5,13.5C 651.971,17.199 659.138,17.199 666,13.5C 668.437,13.8676 671.103,14.5343 674,15.5C 675.333,14.8333 676.667,14.1667 678,13.5C 679.101,15.3939 680.434,16.0606 682,15.5C 682.333,14.8333 682.667,14.1667 683,13.5C 683.278,14.4158 683.778,15.0825 684.5,15.5C 684.5,18.5 684.5,21.5 684.5,24.5C 659.599,24.3024 635.099,24.3024 611,24.5C 608.496,22.3531 606.162,22.3531 604,24.5C 603.667,23.8333 603.333,23.1667 603,22.5C 563.027,22.9871 523.027,23.3204 483,23.5C 480.333,22.8333 477.667,22.1667 475,21.5C 440.768,21.8921 407.435,22.2254 375,22.5C 363.333,21.8333 351.667,21.1667 340,20.5C 307.683,21.4401 274.517,21.4401 240.5,20.5C 237.833,17.5 235.167,14.5 232.5,11.5 Z"/></g>
<g><path style="opacity:1" fill="#dedcec" d="M 240.5,20.5 C 274.517,21.4401 307.683,21.4401 340,20.5C 351.667,21.1667 363.333,21.8333 375,22.5C 407.435,22.2254 440.768,21.8921 475,21.5C 477.667,22.1667 480.333,22.8333 483,23.5C 523.027,23.3204 563.027,22.9871 603,22.5C 603.333,23.1667 603.667,23.8333 604,24.5C 606.162,22.3531 608.496,22.3531 611,24.5C 635.099,24.3024 659.599,24.3024 684.5,24.5C 684.5,29.5 684.5,34.5 684.5,39.5C 674.72,38.3873 665.054,38.3873 655.5,39.5C 651.966,38.8687 648.466,38.202 645,37.5C 625.214,38.4052 605.714,38.4052 586.5,37.5C 585.391,37.4431 584.391,37.1098 583.5,36.5C 579.623,33.8705 575.29,32.2038 570.5,31.5C 568.735,30.5386 566.735,30.2053 564.5,30.5C 558.977,29.2891 553.31,29.2891 547.5,30.5C 525.671,30.1821 502.838,29.5154 479,28.5C 456.082,28.4555 433.082,28.7888 410,29.5C 404.667,28.8333 399.333,28.1667 394,27.5C 346.323,27.6425 298.323,27.6425 250,27.5C 247.913,26.6028 245.746,25.9361 243.5,25.5C 242.752,23.6675 241.752,22.0009 240.5,20.5 Z"/></g>
<g><path style="opacity:1" fill="#d3c6d7" d="M 145.5,21.5 C 146.222,22.5511 147.222,23.2178 148.5,23.5C 146.467,27.5653 144.467,31.5653 142.5,35.5C 140.15,37.3848 137.65,37.7181 135,36.5C 133.149,38.7811 131.482,38.7811 130,36.5C 121.932,36.5438 114.266,36.8772 107,37.5C 105.667,34.8333 104.333,34.8333 103,37.5C 100.874,37.2094 98.5405,36.5427 96,35.5C 94,36.1667 92,36.8333 90,37.5C 89.2588,36.3595 88.4255,36.3595 87.5,37.5C 86.8076,36.9747 86.3076,36.3081 86,35.5C 84.8869,36.7111 83.7202,36.7111 82.5,35.5C 81.5224,35.9767 80.6891,36.6433 80,37.5C 78.038,37.9694 76.2047,37.3027 74.5,35.5C 68.7974,35.5719 63.2974,35.5719 58,35.5C 55.8965,37.9155 53.8965,37.9155 52,35.5C 43.5068,36.4844 35.3401,36.4844 27.5,35.5C 25.0538,37.9239 22.5538,37.9239 20,35.5C 19.6667,36.1667 19.3333,36.8333 19,37.5C 15.8032,36.9518 12.4699,35.9518 9,34.5C 6.08454,34.9701 2.91787,35.6368 -0.5,36.5C -0.5,31.8333 -0.5,27.1667 -0.5,22.5C 2.3925,21.477 5.22583,21.477 8,22.5C 9.44113,21.7402 10.9411,21.0736 12.5,20.5C 14.6016,20.4793 16.7683,20.8126 19,21.5C 20.3159,18.972 21.4826,18.972 22.5,21.5C 23.4255,20.3595 24.2588,20.3595 25,21.5C 25.6667,20.8333 26.3333,20.1667 27,19.5C 32.0811,22.8875 37.4144,23.2208 43,20.5C 45.0433,22.967 47.2099,22.967 49.5,20.5C 52.0338,20.5664 54.5338,20.5664 57,20.5C 57.3333,21.1667 57.6667,21.8333 58,22.5C 60.124,21.7728 62.2906,21.1062 64.5,20.5C 68.3819,23.0442 72.2152,23.0442 76,20.5C 78.5733,21.6398 81.0733,21.6398 83.5,20.5C 84.4776,20.9767 85.3109,21.6433 86,22.5C 87,21.1667 88,21.1667 89,22.5C 91.072,19.8463 92.7387,20.1796 94,23.5C 100.477,22.326 107.143,21.326 114,20.5C 118.662,20.773 123.496,21.4396 128.5,22.5C 130.451,21.7439 132.284,21.4106 134,21.5C 134.333,22.1667 134.667,22.8333 135,23.5C 137.432,23.0343 140.099,23.0343 143,23.5C 144.376,23.3158 145.209,22.6491 145.5,21.5 Z"/></g>
<g><path style="opacity:1" fill="#d9d7ea" d="M 243.5,25.5 C 245.746,25.9361 247.913,26.6028 250,27.5C 298.323,27.6425 346.323,27.6425 394,27.5C 399.333,28.1667 404.667,28.8333 410,29.5C 433.082,28.7888 456.082,28.4555 479,28.5C 502.838,29.5154 525.671,30.1821 547.5,30.5C 541.316,32.5689 535.316,35.2356 529.5,38.5C 528.359,37.661 527.026,36.9943 525.5,36.5C 497.002,35.4947 469.002,35.4947 441.5,36.5C 439.618,35.9067 437.785,35.2401 436,34.5C 380.411,34.4226 325.077,34.4226 270,34.5C 265,33.8333 260,33.1667 255,32.5C 254.439,33.0219 253.772,33.3552 253,33.5C 250.846,32.7259 248.679,32.0592 246.5,31.5C 245.877,29.2895 244.877,27.2895 243.5,25.5 Z"/></g>
<g><path style="opacity:1" fill="#cecbe1" d="M 205.5,47.5 C 203.239,48.4092 201.072,48.7425 199,48.5C 191.746,47.9823 184.579,47.1489 177.5,46C 183.377,39.6208 189.711,33.7875 196.5,28.5C 200.895,23.7592 206.228,20.7592 212.5,19.5C 210.58,28.9283 208.247,38.2616 205.5,47.5 Z"/></g>
<g><path style="opacity:1" fill="#d4d0e6" d="M 246.5,31.5 C 248.679,32.0592 250.846,32.7259 253,33.5C 253.772,33.3552 254.439,33.0219 255,32.5C 260,33.1667 265,33.8333 270,34.5C 325.077,34.4226 380.411,34.4226 436,34.5C 437.785,35.2401 439.618,35.9067 441.5,36.5C 469.002,35.4947 497.002,35.4947 525.5,36.5C 527.026,36.9943 528.359,37.661 529.5,38.5C 527.14,40.8532 524.473,42.8532 521.5,44.5C 507.085,43.653 492.918,43.653 479,44.5C 478.055,44.0946 477.388,43.428 477,42.5C 457.643,43.1633 438.976,43.4966 421,43.5C 413,42.8333 405,42.1667 397,41.5C 378.375,42.0217 360.708,42.355 344,42.5C 336.259,40.4266 328.592,40.4266 321,42.5C 319.333,41.8333 317.667,41.1667 316,40.5C 302.188,40.9355 288.188,41.2688 274,41.5C 267.864,40.8141 261.698,40.1475 255.5,39.5C 253.139,40.9726 251.139,40.6393 249.5,38.5C 248.323,36.3206 247.323,33.9872 246.5,31.5 Z"/></g>
<g><path style="opacity:1" fill="#cdcae3" d="M 249.5,38.5 C 251.139,40.6393 253.139,40.9726 255.5,39.5C 261.698,40.1475 267.864,40.8141 274,41.5C 288.188,41.2688 302.188,40.9355 316,40.5C 317.667,41.1667 319.333,41.8333 321,42.5C 328.592,40.4266 336.259,40.4266 344,42.5C 360.708,42.355 378.375,42.0217 397,41.5C 405,42.1667 413,42.8333 421,43.5C 438.976,43.4966 457.643,43.1633 477,42.5C 477.388,43.428 478.055,44.0946 479,44.5C 492.918,43.653 507.085,43.653 521.5,44.5C 519.154,47.8708 516.821,51.2041 514.5,54.5C 509.604,53.5196 504.437,53.5196 499,54.5C 496.782,53.528 494.449,52.8613 492,52.5C 483.217,53.06 474.051,53.3933 464.5,53.5C 462.618,52.9067 460.785,52.2401 459,51.5C 444.84,51.2696 430.673,51.603 416.5,52.5C 412.96,50.6881 409.627,50.6881 406.5,52.5C 404.941,51.9264 403.441,51.2598 402,50.5C 398.194,51.3435 394.528,51.3435 391,50.5C 390.667,51.1667 390.333,51.8333 390,52.5C 389.481,51.4844 388.647,50.8178 387.5,50.5C 361.738,50.827 335.571,50.827 309,50.5C 307,49.8333 305,49.1667 303,48.5C 302.667,49.1667 302.333,49.8333 302,50.5C 299.271,49.4748 296.271,49.4748 293,50.5C 291.333,49.8333 289.667,49.1667 288,48.5C 277.169,48.6386 267.003,48.9719 257.5,49.5C 255.47,48.8283 253.47,48.1616 251.5,47.5C 250.976,45.6943 250.309,44.0276 249.5,42.5C 249.5,41.1667 249.5,39.8333 249.5,38.5 Z"/></g>
<g><path style="opacity:1" fill="#c8bad0" d="M 142.5,35.5 C 141.833,39.1667 141.167,42.8333 140.5,46.5C 139.691,48.2922 139.191,50.2922 139,52.5C 138.667,52.1667 138.333,51.8333 138,51.5C 135.43,52.009 133.097,53.009 131,54.5C 130.667,53.5 130.333,52.5 130,51.5C 129.333,52.8333 128.667,52.8333 128,51.5C 127.667,52.1667 127.333,52.8333 127,53.5C 125.667,52.8333 124.333,52.1667 123,51.5C 122.667,52.1667 122.333,52.8333 122,53.5C 119.816,54.1081 117.816,53.4414 116,51.5C 114.667,54.1667 113.333,54.1667 112,51.5C 108.505,51.7251 104.505,52.3918 100,53.5C 99.6924,52.6919 99.1924,52.0253 98.5,51.5C 93.7268,51.5418 89.0602,51.8751 84.5,52.5C 82.9707,52.4712 81.804,51.8045 81,50.5C 80.6667,51.1667 80.3333,51.8333 80,52.5C 77.7598,52.91 75.5931,52.2434 73.5,50.5C 72.5,51.1667 71.5,51.8333 70.5,52.5C 66.6123,52.3877 62.4456,52.3877 58,52.5C 55.9307,51.7362 53.764,51.2362 51.5,51C 52.6956,50.3457 52.6956,49.8457 51.5,49.5C 50.4826,52.028 49.3159,52.028 48,49.5C 46.4506,52.0026 44.7839,52.0026 43,49.5C 41.6667,50.1667 40.3333,50.8333 39,51.5C 36.814,50.9783 34.4806,50.9783 32,51.5C 30.6914,49.1088 29.6914,49.1088 29,51.5C 27.4748,51.1119 25.8082,51.1119 24,51.5C 23.6667,50.8333 23.3333,50.1667 23,49.5C 18.7754,50.3902 14.7754,50.3902 11,49.5C 10,50.1667 9,50.8333 8,51.5C 7.33333,50.1667 6.33333,49.1667 5,48.5C 3.4157,49.8613 1.58236,50.528 -0.5,50.5C -0.5,45.8333 -0.5,41.1667 -0.5,36.5C 2.91787,35.6368 6.08454,34.9701 9,34.5C 12.4699,35.9518 15.8032,36.9518 19,37.5C 19.3333,36.8333 19.6667,36.1667 20,35.5C 22.5538,37.9239 25.0538,37.9239 27.5,35.5C 35.3401,36.4844 43.5068,36.4844 52,35.5C 53.8965,37.9155 55.8965,37.9155 58,35.5C 63.2974,35.5719 68.7974,35.5719 74.5,35.5C 76.2047,37.3027 78.038,37.9694 80,37.5C 80.6891,36.6433 81.5224,35.9767 82.5,35.5C 83.7202,36.7111 84.8869,36.7111 86,35.5C 86.3076,36.3081 86.8076,36.9747 87.5,37.5C 88.4255,36.3595 89.2588,36.3595 90,37.5C 92,36.8333 94,36.1667 96,35.5C 98.5405,36.5427 100.874,37.2094 103,37.5C 104.333,34.8333 105.667,34.8333 107,37.5C 114.266,36.8772 121.932,36.5438 130,36.5C 131.482,38.7811 133.149,38.7811 135,36.5C 137.65,37.7181 140.15,37.3848 142.5,35.5 Z"/></g>
<g><path style="opacity:1" fill="#d3bac2" d="M 564.5,30.5 C 566.735,30.2053 568.735,30.5386 570.5,31.5C 568.201,33.9938 565.867,36.4938 563.5,39C 562.207,39.49 560.873,39.6567 559.5,39.5C 559.657,40.8734 559.49,42.2068 559,43.5C 551.029,49.9704 543.529,56.9704 536.5,64.5C 528.458,74.2022 520.125,83.5356 511.5,92.5C 509.121,87.112 508.121,81.4454 508.5,75.5C 508.232,73.901 508.566,72.5676 509.5,71.5C 508.238,78.7466 509.905,79.9133 514.5,75C 514.031,73.038 514.697,71.2047 516.5,69.5C 525.102,60.066 534.269,51.066 544,42.5C 545.602,40.6045 547.102,38.6045 548.5,36.5C 548.291,35.914 547.957,35.414 547.5,35C 549.521,34.5988 550.855,33.4321 551.5,31.5C 555.783,30.5078 560.116,30.1744 564.5,30.5 Z"/></g>
<g><path style="opacity:1" fill="#dbc6c7" d="M 564.5,30.5 C 560.116,30.1744 555.783,30.5078 551.5,31.5C 550.855,33.4321 549.521,34.5988 547.5,35C 547.957,35.414 548.291,35.914 548.5,36.5C 547.102,38.6045 545.602,40.6045 544,42.5C 534.269,51.066 525.102,60.066 516.5,69.5C 514.697,71.2047 514.031,73.038 514.5,75C 509.905,79.9133 508.238,78.7466 509.5,71.5C 509.401,68.7628 509.735,66.0961 510.5,63.5C 512.07,60.6865 513.403,57.6865 514.5,54.5C 516.821,51.2041 519.154,47.8708 521.5,44.5C 524.473,42.8532 527.14,40.8532 529.5,38.5C 535.316,35.2356 541.316,32.5689 547.5,30.5C 553.31,29.2891 558.977,29.2891 564.5,30.5 Z"/></g>
<g><path style="opacity:1" fill="#c8c4e0" d="M 251.5,47.5 C 253.47,48.1616 255.47,48.8283 257.5,49.5C 267.003,48.9719 277.169,48.6386 288,48.5C 289.667,49.1667 291.333,49.8333 293,50.5C 296.271,49.4748 299.271,49.4748 302,50.5C 302.333,49.8333 302.667,49.1667 303,48.5C 305,49.1667 307,49.8333 309,50.5C 335.571,50.827 361.738,50.827 387.5,50.5C 388.647,50.8178 389.481,51.4844 390,52.5C 390.333,51.8333 390.667,51.1667 391,50.5C 394.528,51.3435 398.194,51.3435 402,50.5C 403.441,51.2598 404.941,51.9264 406.5,52.5C 409.627,50.6881 412.96,50.6881 416.5,52.5C 430.673,51.603 444.84,51.2696 459,51.5C 460.785,52.2401 462.618,52.9067 464.5,53.5C 474.051,53.3933 483.217,53.06 492,52.5C 494.449,52.8613 496.782,53.528 499,54.5C 504.437,53.5196 509.604,53.5196 514.5,54.5C 513.403,57.6865 512.07,60.6865 510.5,63.5C 508.231,63.304 505.731,62.6374 503,61.5C 501.915,62.2931 500.748,62.9598 499.5,63.5C 496.961,62.8847 494.461,62.2181 492,61.5C 482.402,61.4306 473.069,61.7639 464,62.5C 459.333,61.8333 454.667,61.1667 450,60.5C 443.934,60.7169 437.934,61.0502 432,61.5C 425.531,60.8152 419.031,60.1485 412.5,59.5C 402.907,59.4284 393.074,59.7617 383,60.5C 379.163,58.5591 375.163,58.5591 371,60.5C 370.333,59.8333 369.667,59.1667 369,58.5C 347.826,57.9428 327.16,57.9428 307,58.5C 303.333,57.8333 299.667,57.1667 296,56.5C 284.114,57.2776 272.447,57.611 261,57.5C 258.843,55.8688 256.343,55.3688 253.5,56C 252.915,54.6976 252.249,53.531 251.5,52.5C 251.5,50.8333 251.5,49.1667 251.5,47.5 Z"/></g>
<g><path style="opacity:1" fill="#9691df" d="M 170.5,50.5 C 180.172,50.3335 189.839,50.5002 199.5,51C 198.956,51.7172 198.289,52.2172 197.5,52.5C 188.5,51.8333 179.5,51.1667 170.5,50.5 Z"/></g>
<g><path style="opacity:1" fill="#6561cc" d="M 205.5,48.5 C 209.913,50.1384 214.579,51.1384 219.5,51.5C 214.5,51.5 209.5,51.5 204.5,51.5C 204.263,50.209 204.596,49.209 205.5,48.5 Z"/></g>
<g><path style="opacity:1" fill="#cfcce4" d="M 586.5,37.5 C 605.714,38.4052 625.214,38.4052 645,37.5C 648.466,38.202 651.966,38.8687 655.5,39.5C 665.054,38.3873 674.72,38.3873 684.5,39.5C 684.5,45.5 684.5,51.5 684.5,57.5C 666.14,57.1932 648.64,57.1932 632,57.5C 630.687,56.4272 629.187,55.7605 627.5,55.5C 619.68,56.5244 611.68,56.5244 603.5,55.5C 600.208,50.5399 596.208,46.2066 591.5,42.5C 590.027,40.6053 588.36,38.9387 586.5,37.5 Z"/></g>
<g><path style="opacity:1" fill="#ccafbd" d="M 570.5,31.5 C 575.29,32.2038 579.623,33.8705 583.5,36.5C 579.685,39.149 576.019,41.9823 572.5,45C 570.081,47.1444 568.414,49.6444 567.5,52.5C 566.178,52.33 565.011,52.6634 564,53.5C 551.669,66.999 539.502,80.6656 527.5,94.5C 530.306,95.1676 532.972,95.8343 535.5,96.5C 527.833,96.5 520.167,96.5 512.5,96.5C 512.167,95.1667 511.833,93.8333 511.5,92.5C 520.125,83.5356 528.458,74.2022 536.5,64.5C 543.529,56.9704 551.029,49.9704 559,43.5C 559.49,42.2068 559.657,40.8734 559.5,39.5C 560.873,39.6567 562.207,39.49 563.5,39C 565.867,36.4938 568.201,33.9938 570.5,31.5 Z"/></g>
<g><path style="opacity:1" fill="#bbb7d6" d="M 196.5,28.5 C 189.711,33.7875 183.377,39.6208 177.5,46C 184.579,47.1489 191.746,47.9823 199,48.5C 201.072,48.7425 203.239,48.4092 205.5,47.5C 205.5,47.8333 205.5,48.1667 205.5,48.5C 204.596,49.209 204.263,50.209 204.5,51.5C 209.5,51.5 214.5,51.5 219.5,51.5C 222.139,53.838 221.806,56.0047 218.5,58C 206.07,66.6295 193.57,75.1295 181,83.5C 179.115,83.1379 178.281,81.9713 178.5,80C 180.433,72.1028 182.599,64.2695 185,56.5C 189.003,54.6657 193.17,53.3324 197.5,52.5C 198.289,52.2172 198.956,51.7172 199.5,51C 189.839,50.5002 180.172,50.3335 170.5,50.5C 169.113,48.5112 169.447,46.6779 171.5,45C 179.733,39.2516 188.067,33.7516 196.5,28.5 Z"/></g>
<g><path style="opacity:1" fill="#c5a3b8" d="M 583.5,36.5 C 584.391,37.1098 585.391,37.4431 586.5,37.5C 588.36,38.9387 590.027,40.6053 591.5,42.5C 586.899,47.3282 582.066,51.9949 577,56.5C 576.517,57.448 576.351,58.448 576.5,59.5C 575.5,59.5 574.5,59.5 573.5,59.5C 573.5,60.5 573.5,61.5 573.5,62.5C 572.178,62.33 571.011,62.6634 570,63.5C 562.371,72.7974 554.371,81.7974 546,90.5C 545.173,91.6621 544.34,92.8288 543.5,94C 544.056,95.0111 544.722,95.8444 545.5,96.5C 542.167,96.5 538.833,96.5 535.5,96.5C 532.972,95.8343 530.306,95.1676 527.5,94.5C 539.502,80.6656 551.669,66.999 564,53.5C 565.011,52.6634 566.178,52.33 567.5,52.5C 568.414,49.6444 570.081,47.1444 572.5,45C 576.019,41.9823 579.685,39.149 583.5,36.5 Z"/></g>
<g><path style="opacity:1" fill="#af7fa9" d="M 603.5,57.5 C 605.932,62.2194 607.598,67.2194 608.5,72.5C 608.675,80.7842 607.342,88.7842 604.5,96.5C 593.5,96.5 582.5,96.5 571.5,96.5C 570.737,95.7321 569.737,95.2321 568.5,95C 572.986,88.8503 577.819,83.0169 583,77.5C 584.812,75.448 586.145,73.1147 587,70.5C 592.327,66.1722 597.327,61.5055 602,56.5C 602.383,57.056 602.883,57.3893 603.5,57.5 Z"/></g>
<g><path style="opacity:1" fill="#bcadc9" d="M 140.5,46.5 C 140.337,51.547 140.671,56.547 141.5,61.5C 141.505,65.5341 141.838,69.5341 142.5,73.5C 131.082,73.0022 118.916,73.0022 106,73.5C 105.085,72.6721 104.419,71.6721 104,70.5C 103.667,71.5 103.333,72.5 103,73.5C 102.333,72.1667 101.667,72.1667 101,73.5C 100.261,72.4258 99.2613,71.7591 98,71.5C 96.3333,71.8333 94.6667,72.1667 93,72.5C 91.1084,72.2231 89.7751,71.2231 89,69.5C 88.6667,70.1667 88.3333,70.8333 88,71.5C 87,71.1667 86,70.8333 85,70.5C 84.6667,71.1667 84.3333,71.8333 84,72.5C 82.9207,70.6063 81.5874,70.273 80,71.5C 79.6667,70.8333 79.3333,70.1667 79,69.5C 77.0903,70.2065 75.0903,71.2065 73,72.5C 71.8455,71.2567 70.5122,70.2567 69,69.5C 66.581,71.2126 64.081,71.8793 61.5,71.5C 60.7492,70.624 60.2492,69.624 60,68.5C 59.4806,69.5156 58.6473,70.1822 57.5,70.5C 52.2764,69.61 47.2764,69.61 42.5,70.5C 41.3527,70.1822 40.5194,69.5156 40,68.5C 37.3467,69.33 34.68,70.33 32,71.5C 31.0853,70.6721 30.4186,69.6721 30,68.5C 27.0025,68.398 24.3359,69.0646 22,70.5C 21.6667,69.8333 21.3333,69.1667 21,68.5C 16.2492,68.4129 11.4159,68.7462 6.5,69.5C 4.27561,67.637 1.94228,66.9703 -0.5,67.5C -0.5,61.8333 -0.5,56.1667 -0.5,50.5C 1.58236,50.528 3.4157,49.8613 5,48.5C 6.33333,49.1667 7.33333,50.1667 8,51.5C 9,50.8333 10,50.1667 11,49.5C 14.7754,50.3902 18.7754,50.3902 23,49.5C 23.3333,50.1667 23.6667,50.8333 24,51.5C 25.8082,51.1119 27.4748,51.1119 29,51.5C 29.6914,49.1088 30.6914,49.1088 32,51.5C 34.4806,50.9783 36.814,50.9783 39,51.5C 40.3333,50.8333 41.6667,50.1667 43,49.5C 44.7839,52.0026 46.4506,52.0026 48,49.5C 49.3159,52.028 50.4826,52.028 51.5,49.5C 52.6956,49.8457 52.6956,50.3457 51.5,51C 53.764,51.2362 55.9307,51.7362 58,52.5C 62.4456,52.3877 66.6123,52.3877 70.5,52.5C 71.5,51.8333 72.5,51.1667 73.5,50.5C 75.5931,52.2434 77.7598,52.91 80,52.5C 80.3333,51.8333 80.6667,51.1667 81,50.5C 81.804,51.8045 82.9707,52.4712 84.5,52.5C 89.0602,51.8751 93.7268,51.5418 98.5,51.5C 99.1924,52.0253 99.6924,52.6919 100,53.5C 104.505,52.3918 108.505,51.7251 112,51.5C 113.333,54.1667 114.667,54.1667 116,51.5C 117.816,53.4414 119.816,54.1081 122,53.5C 122.333,52.8333 122.667,52.1667 123,51.5C 124.333,52.1667 125.667,52.8333 127,53.5C 127.333,52.8333 127.667,52.1667 128,51.5C 128.667,52.8333 129.333,52.8333 130,51.5C 130.333,52.5 130.667,53.5 131,54.5C 133.097,53.009 135.43,52.009 138,51.5C 138.333,51.8333 138.667,52.1667 139,52.5C 139.191,50.2922 139.691,48.2922 140.5,46.5 Z"/></g>
<g><path style="opacity:1" fill="#c0bcdc" d="M 251.5,52.5 C 252.249,53.531 252.915,54.6976 253.5,56C 256.343,55.3688 258.843,55.8688 261,57.5C 272.447,57.611 284.114,57.2776 296,56.5C 299.667,57.1667 303.333,57.8333 307,58.5C 327.16,57.9428 347.826,57.9428 369,58.5C 369.667,59.1667 370.333,59.8333 371,60.5C 375.163,58.5591 379.163,58.5591 383,60.5C 393.074,59.7617 402.907,59.4284 412.5,59.5C 419.031,60.1485 425.531,60.8152 432,61.5C 437.934,61.0502 443.934,60.7169 450,60.5C 454.667,61.1667 459.333,61.8333 464,62.5C 473.069,61.7639 482.402,61.4306 492,61.5C 494.461,62.2181 496.961,62.8847 499.5,63.5C 500.748,62.9598 501.915,62.2931 503,61.5C 505.731,62.6374 508.231,63.304 510.5,63.5C 509.735,66.0961 509.401,68.7628 509.5,71.5C 508.566,72.5676 508.232,73.901 508.5,75.5C 505.349,76.3157 502.183,75.9824 499,74.5C 495.467,74.8112 491.633,74.8112 487.5,74.5C 486.353,74.8178 485.519,75.4844 485,76.5C 481.238,74.8715 477.238,73.8715 473,73.5C 457.684,73.5959 442.018,73.9293 426,74.5C 424.559,73.7402 423.059,73.0736 421.5,72.5C 418.847,73.303 416.013,73.6363 413,73.5C 412,72.8333 411,72.1667 410,71.5C 406.076,72.3497 402.41,73.0164 399,73.5C 391.667,72.8333 384.333,72.1667 377,71.5C 374.478,71.2625 371.811,71.5958 369,72.5C 368.055,72.0946 367.388,71.428 367,70.5C 360.341,71.1653 353.674,71.4986 347,71.5C 339.667,70.8333 332.333,70.1667 325,69.5C 321.658,69.2226 318.158,69.5559 314.5,70.5C 313.252,69.9598 312.085,69.2931 311,68.5C 299.531,69.0246 288.198,69.3579 277,69.5C 276,68.8333 275,68.1667 274,67.5C 271.824,67.4284 269.824,67.7617 268,68.5C 266.667,65.8333 265.333,65.8333 264,68.5C 259.749,68.0014 255.249,67.668 250.5,67.5C 250.916,62.5068 251.249,57.5068 251.5,52.5 Z"/></g>
<g><path style="opacity:1" fill="#c5c1de" d="M 603.5,55.5 C 611.68,56.5244 619.68,56.5244 627.5,55.5C 629.187,55.7605 630.687,56.4272 632,57.5C 648.64,57.1932 666.14,57.1932 684.5,57.5C 684.5,63.1667 684.5,68.8333 684.5,74.5C 682.955,75.5804 681.455,75.5804 680,74.5C 679.055,74.9054 678.388,75.572 678,76.5C 676.604,74.4732 674.938,74.1398 673,75.5C 670.876,74.7728 668.709,74.1062 666.5,73.5C 666.323,76.0782 665.157,76.0782 663,73.5C 662,74.8333 661,74.8333 660,73.5C 659.333,74.1667 658.667,74.8333 658,75.5C 654.766,73.7227 651.099,73.056 647,73.5C 646.667,74.1667 646.333,74.8333 646,75.5C 644.687,74.4272 643.187,73.7605 641.5,73.5C 638.586,73.4883 635.586,73.8217 632.5,74.5C 626.5,73.8333 620.5,73.1667 614.5,72.5C 613.808,73.0253 613.308,73.6919 613,74.5C 611.67,73.4178 610.17,72.7512 608.5,72.5C 607.598,67.2194 605.932,62.2194 603.5,57.5C 603.5,56.8333 603.5,56.1667 603.5,55.5 Z"/></g>
<g><path style="opacity:1" fill="#bb93b1" d="M 591.5,42.5 C 596.208,46.2066 600.208,50.5399 603.5,55.5C 603.5,56.1667 603.5,56.8333 603.5,57.5C 602.883,57.3893 602.383,57.056 602,56.5C 597.327,61.5055 592.327,66.1722 587,70.5C 586.145,73.1147 584.812,75.448 583,77.5C 577.819,83.0169 572.986,88.8503 568.5,95C 569.737,95.2321 570.737,95.7321 571.5,96.5C 562.833,96.5 554.167,96.5 545.5,96.5C 544.722,95.8444 544.056,95.0111 543.5,94C 544.34,92.8288 545.173,91.6621 546,90.5C 554.371,81.7974 562.371,72.7974 570,63.5C 571.011,62.6634 572.178,62.33 573.5,62.5C 573.5,61.5 573.5,60.5 573.5,59.5C 574.5,59.5 575.5,59.5 576.5,59.5C 576.351,58.448 576.517,57.448 577,56.5C 582.066,51.9949 586.899,47.3282 591.5,42.5 Z"/></g>
<g><path style="opacity:1" fill="#b9b4d7" d="M 249.5,42.5 C 250.309,44.0276 250.976,45.6943 251.5,47.5C 251.5,49.1667 251.5,50.8333 251.5,52.5C 251.249,57.5068 250.916,62.5068 250.5,67.5C 255.249,67.668 259.749,68.0014 264,68.5C 265.333,65.8333 266.667,65.8333 268,68.5C 269.824,67.7617 271.824,67.4284 274,67.5C 275,68.1667 276,68.8333 277,69.5C 288.198,69.3579 299.531,69.0246 311,68.5C 312.085,69.2931 313.252,69.9598 314.5,70.5C 318.158,69.5559 321.658,69.2226 325,69.5C 332.333,70.1667 339.667,70.8333 347,71.5C 353.674,71.4986 360.341,71.1653 367,70.5C 367.388,71.428 368.055,72.0946 369,72.5C 371.811,71.5958 374.478,71.2625 377,71.5C 384.333,72.1667 391.667,72.8333 399,73.5C 402.41,73.0164 406.076,72.3497 410,71.5C 411,72.1667 412,72.8333 413,73.5C 416.013,73.6363 418.847,73.303 421.5,72.5C 423.059,73.0736 424.559,73.7402 426,74.5C 442.018,73.9293 457.684,73.5959 473,73.5C 477.238,73.8715 481.238,74.8715 485,76.5C 485.519,75.4844 486.353,74.8178 487.5,74.5C 491.633,74.8112 495.467,74.8112 499,74.5C 502.183,75.9824 505.349,76.3157 508.5,75.5C 508.121,81.4454 509.121,87.112 511.5,92.5C 511.833,93.8333 512.167,95.1667 512.5,96.5C 418.167,96.5 323.833,96.5 229.5,96.5C 314.569,95.832 399.736,95.1654 485,94.5C 487.746,95.1432 490.579,95.4765 493.5,95.5C 496.691,95.6218 499.691,95.1218 502.5,94C 501.128,93.5983 499.795,93.0983 498.5,92.5C 494.075,92.3039 489.742,92.6373 485.5,93.5C 484.522,93.0233 483.689,92.3567 483,91.5C 481.333,92.8333 479.667,92.8333 478,91.5C 477.667,92.1667 477.333,92.8333 477,93.5C 474.916,90.967 472.916,90.967 471,93.5C 469.333,90.8333 467.667,90.8333 466,93.5C 465.683,91.6992 465.016,91.3659 464,92.5C 462.333,91.8333 460.667,91.1667 459,90.5C 452.951,90.2306 446.951,90.5639 441,91.5C 440.667,90.8333 440.333,90.1667 440,89.5C 439,90.8333 438,90.8333 437,89.5C 436.692,90.3081 436.192,90.9747 435.5,91.5C 434.304,91.1543 434.304,90.6543 435.5,90C 432.853,89.821 430.186,89.9876 427.5,90.5C 425.192,90.6353 423.192,89.9686 421.5,88.5C 420.452,89.3829 419.285,90.0496 418,90.5C 417.894,89.2061 416.894,88.5394 415,88.5C 413.289,88.4393 411.956,89.1059 411,90.5C 409.874,89.0564 408.374,88.3898 406.5,88.5C 402.51,88.8234 398.51,89.1568 394.5,89.5C 393.252,88.9598 392.085,88.2931 391,87.5C 380.965,88.0291 370.299,88.0291 359,87.5C 357.674,87.2451 356.674,86.5784 356,85.5C 354.667,86.1667 353.333,86.8333 352,87.5C 351.309,85.1088 350.309,85.1088 349,87.5C 348.333,86.8333 347.667,86.1667 347,85.5C 343.099,86.0848 339.099,86.4182 335,86.5C 333.209,84.4873 331.875,84.4873 331,86.5C 329.559,85.7402 328.059,85.0736 326.5,84.5C 320.938,84.6709 315.104,85.0043 309,85.5C 308.311,84.6433 307.478,83.9767 306.5,83.5C 297.998,84.1673 288.998,84.5006 279.5,84.5C 275.027,84.2525 270.86,83.2525 267,81.5C 266.311,82.3567 265.478,83.0233 264.5,83.5C 260.946,83.2742 257.113,83.2742 253,83.5C 250.865,82.8729 248.698,82.3729 246.5,82C 245.919,81.1074 245.585,80.1074 245.5,79C 248.153,73.5156 249.486,67.6823 249.5,61.5C 250.671,55.1931 250.671,48.8598 249.5,42.5 Z"/></g>
<g><path style="opacity:1" fill="#bdb8d9" d="M 608.5,72.5 C 610.17,72.7512 611.67,73.4178 613,74.5C 613.308,73.6919 613.808,73.0253 614.5,72.5C 620.5,73.1667 626.5,73.8333 632.5,74.5C 635.586,73.8217 638.586,73.4883 641.5,73.5C 643.187,73.7605 644.687,74.4272 646,75.5C 646.333,74.8333 646.667,74.1667 647,73.5C 651.099,73.056 654.766,73.7227 658,75.5C 658.667,74.8333 659.333,74.1667 660,73.5C 661,74.8333 662,74.8333 663,73.5C 665.157,76.0782 666.323,76.0782 666.5,73.5C 668.709,74.1062 670.876,74.7728 673,75.5C 674.938,74.1398 676.604,74.4732 678,76.5C 678.388,75.572 679.055,74.9054 680,74.5C 681.455,75.5804 682.955,75.5804 684.5,74.5C 684.5,81.8333 684.5,89.1667 684.5,96.5C 657.833,96.5 631.167,96.5 604.5,96.5C 607.342,88.7842 608.675,80.7842 608.5,72.5 Z"/></g>
<g><path style="opacity:1" fill="#b0a0c3" d="M 141.5,61.5 C 145.285,76.0736 153.285,87.7402 165.5,96.5C 110.167,96.5 54.8333,96.5 -0.5,96.5C -0.5,86.8333 -0.5,77.1667 -0.5,67.5C 1.94228,66.9703 4.27561,67.637 6.5,69.5C 11.4159,68.7462 16.2492,68.4129 21,68.5C 21.3333,69.1667 21.6667,69.8333 22,70.5C 24.3359,69.0646 27.0025,68.398 30,68.5C 30.4186,69.6721 31.0853,70.6721 32,71.5C 34.68,70.33 37.3467,69.33 40,68.5C 40.5194,69.5156 41.3527,70.1822 42.5,70.5C 47.2764,69.61 52.2764,69.61 57.5,70.5C 58.6473,70.1822 59.4806,69.5156 60,68.5C 60.2492,69.624 60.7492,70.624 61.5,71.5C 64.081,71.8793 66.581,71.2126 69,69.5C 70.5122,70.2567 71.8455,71.2567 73,72.5C 75.0903,71.2065 77.0903,70.2065 79,69.5C 79.3333,70.1667 79.6667,70.8333 80,71.5C 81.5874,70.273 82.9207,70.6063 84,72.5C 84.3333,71.8333 84.6667,71.1667 85,70.5C 86,70.8333 87,71.1667 88,71.5C 88.3333,70.8333 88.6667,70.1667 89,69.5C 89.7751,71.2231 91.1084,72.2231 93,72.5C 94.6667,72.1667 96.3333,71.8333 98,71.5C 99.2613,71.7591 100.261,72.4258 101,73.5C 101.667,72.1667 102.333,72.1667 103,73.5C 103.333,72.5 103.667,71.5 104,70.5C 104.419,71.6721 105.085,72.6721 106,73.5C 118.916,73.0022 131.082,73.0022 142.5,73.5C 141.838,69.5341 141.505,65.5341 141.5,61.5 Z"/></g>
<g><path style="opacity:1" fill="#b1acd2" d="M 249.5,61.5 C 249.486,67.6823 248.153,73.5156 245.5,79C 245.585,80.1074 245.919,81.1074 246.5,82C 248.698,82.3729 250.865,82.8729 253,83.5C 257.113,83.2742 260.946,83.2742 264.5,83.5C 265.478,83.0233 266.311,82.3567 267,81.5C 270.86,83.2525 275.027,84.2525 279.5,84.5C 288.998,84.5006 297.998,84.1673 306.5,83.5C 307.478,83.9767 308.311,84.6433 309,85.5C 315.104,85.0043 320.938,84.6709 326.5,84.5C 328.059,85.0736 329.559,85.7402 331,86.5C 331.875,84.4873 333.209,84.4873 335,86.5C 339.099,86.4182 343.099,86.0848 347,85.5C 347.667,86.1667 348.333,86.8333 349,87.5C 350.309,85.1088 351.309,85.1088 352,87.5C 353.333,86.8333 354.667,86.1667 356,85.5C 356.674,86.5784 357.674,87.2451 359,87.5C 370.299,88.0291 380.965,88.0291 391,87.5C 392.085,88.2931 393.252,88.9598 394.5,89.5C 398.51,89.1568 402.51,88.8234 406.5,88.5C 408.374,88.3898 409.874,89.0564 411,90.5C 411.956,89.1059 413.289,88.4393 415,88.5C 416.894,88.5394 417.894,89.2061 418,90.5C 419.285,90.0496 420.452,89.3829 421.5,88.5C 423.192,89.9686 425.192,90.6353 427.5,90.5C 430.186,89.9876 432.853,89.821 435.5,90C 434.304,90.6543 434.304,91.1543 435.5,91.5C 436.192,90.9747 436.692,90.3081 437,89.5C 438,90.8333 439,90.8333 440,89.5C 440.333,90.1667 440.667,90.8333 441,91.5C 446.951,90.5639 452.951,90.2306 459,90.5C 460.667,91.1667 462.333,91.8333 464,92.5C 465.016,91.3659 465.683,91.6992 466,93.5C 467.667,90.8333 469.333,90.8333 471,93.5C 472.916,90.967 474.916,90.967 477,93.5C 477.333,92.8333 477.667,92.1667 478,91.5C 479.667,92.8333 481.333,92.8333 483,91.5C 483.689,92.3567 484.522,93.0233 485.5,93.5C 489.742,92.6373 494.075,92.3039 498.5,92.5C 499.795,93.0983 501.128,93.5983 502.5,94C 499.691,95.1218 496.691,95.6218 493.5,95.5C 490.579,95.4765 487.746,95.1432 485,94.5C 399.736,95.1654 314.569,95.832 229.5,96.5C 228.167,96.5 226.833,96.5 225.5,96.5C 237.729,87.7005 245.729,76.0338 249.5,61.5 Z"/></g>
</svg>
